<svg width="42" height="24" viewBox="0 0 42 24" fill="none" xmlns="http://www.w3.org/2000/svg">
<path d="M41.7718 22.9041C40.2798 23.2756 39.357 22.9204 38.5289 21.7027L32.6404 13.724L31.7893 12.6193L24.9126 21.7291C24.1269 22.825 23.3027 23.302 21.8363 22.9141L30.6421 11.3376L22.4439 0.880868C23.8538 0.612231 24.828 0.749059 25.6932 1.98554L31.8009 10.0635L37.9534 2.02948C38.7417 0.933591 39.589 0.516827 41.004 0.921038L37.8252 5.04851L33.5185 10.5405C33.0057 11.1682 33.0762 11.5975 33.5479 12.2038L41.7718 22.9041ZM0.765137 11.1443L1.4855 7.67462C3.44662 0.80806 11.4834 -2.04527 17.0258 2.19769C20.2649 4.69325 21.0698 8.22319 20.9096 12.1774H2.65192C2.37762 19.2951 7.60856 23.5907 14.2777 21.399C16.6169 20.6294 17.9948 18.8356 18.6844 16.5911C19.0343 15.4663 19.6137 15.2906 20.693 15.612C20.1418 18.4188 18.8985 20.7638 16.2708 22.2312C12.3447 24.428 6.74079 23.7175 3.7927 20.6646C2.03666 18.8934 1.31118 16.6489 0.985603 14.2487C0.934332 13.852 0.83179 13.4742 0.754883 13.0938C0.761719 12.4444 0.765137 11.795 0.765137 11.1456V11.1443ZM2.68524 10.6673H19.1843C19.0766 5.5205 15.8043 1.86503 11.3321 1.83365C6.42291 1.79599 2.89802 5.36485 2.68524 10.6673Z" fill="#151E2C"/>
</svg>
