<?xml version="1.0" encoding="UTF-8"?>
<svg version="1.1" xmlns="http://www.w3.org/2000/svg" viewBox="0 0 160 160">
<path d="M0 0 C3.44841618 0.43869866 6.89892822 0.85635008 10.3503418 1.27075195 C12.55425993 1.53977272 14.75804218 1.80990966 16.96166992 2.08129883 C18.50189064 2.27042091 18.50189064 2.27042091 20.07322693 2.46336365 C21.01344193 2.58341263 21.95365692 2.70346161 22.92236328 2.82714844 C23.74852646 2.93151718 24.57468964 3.03588593 25.42588806 3.14341736 C27.43432617 3.49145508 27.43432617 3.49145508 29.43432617 4.49145508 C29.43432617 5.81145508 29.43432617 7.13145508 29.43432617 8.49145508 C22.17432617 9.81145508 14.91432617 11.13145508 7.43432617 12.49145508 C8.11721 18.63740951 8.7317875 22.96073977 10.49682617 28.61645508 C14.09502271 41.23494155 12.58413885 52.92070948 9.43432617 65.49145508 C8.89031173 67.90759432 8.34855056 70.3242423 7.80932617 72.74145508 C6.56379046 78.23252651 6.56379046 78.23252651 5.43432617 80.49145508 C5.36316235 82.86548009 5.35023532 85.24146184 5.37182617 87.61645508 C5.38084961 88.8977832 5.38987305 90.17911133 5.39916992 91.49926758 C5.41077148 92.48668945 5.42237305 93.47411133 5.43432617 94.49145508 C3.94932617 94.98645508 3.94932617 94.98645508 2.43432617 95.49145508 C1.93932617 96.97645508 1.93932617 96.97645508 1.43432617 98.49145508 C-1.86567383 98.49145508 -5.16567383 98.49145508 -8.56567383 98.49145508 C-9.55567383 100.47145508 -9.55567383 100.47145508 -10.56567383 102.49145508 C-12.59678916 104.31456463 -14.72078458 105.95204713 -16.88598633 107.61254883 C-18.83208276 109.41270329 -18.83208276 109.41270329 -18.80786133 112.21411133 C-18.68797852 113.34139648 -18.68797852 113.34139648 -18.56567383 114.49145508 C-17.34879883 114.55333008 -16.13192383 114.61520508 -14.87817383 114.67895508 C-5.44752531 115.74994355 4.70832499 119.59978884 11.43432617 126.49145508 C13.93690641 130.22597559 15.7554758 134.19317044 17.55932617 138.30395508 C18.33663086 140.04612305 18.33663086 140.04612305 19.12963867 141.82348633 C20.43432617 145.49145508 20.43432617 145.49145508 21.43432617 153.49145508 C-16.51567383 153.49145508 -54.46567383 153.49145508 -93.56567383 153.49145508 C-92.46439703 143.57996387 -90.24704249 133.17808606 -83.71020508 125.23754883 C-81.72794006 123.67217254 -79.84496784 122.57721335 -77.56567383 121.49145508 C-76.26049805 120.81083008 -76.26049805 120.81083008 -74.92895508 120.11645508 C-67.86539061 116.64870795 -60.54403485 113.97672211 -52.56567383 114.49145508 C-52.25226869 112.12018391 -52.25226869 112.12018391 -52.56567383 109.49145508 C-54.14956656 107.73623782 -54.14956656 107.73623782 -56.31567383 106.42895508 C-59.3984836 104.31595717 -61.92085391 102.136275 -64.56567383 99.49145508 C-68.05026051 97.0522444 -69.18639855 96.49145508 -73.56567383 96.49145508 C-73.56567383 95.83145508 -73.56567383 95.17145508 -73.56567383 94.49145508 C-74.88567383 94.49145508 -76.20567383 94.49145508 -77.56567383 94.49145508 C-77.53086914 93.58524414 -77.49606445 92.6790332 -77.46020508 91.74536133 C-77.29362711 84.24935295 -77.6935694 78.43237411 -80.56567383 71.49145508 C-81.22567383 72.02770508 -81.88567383 72.56395508 -82.56567383 73.11645508 C-86.86938171 75.08898786 -89.07904216 73.76940959 -93.56567383 72.49145508 C-93.59484611 69.26230756 -93.61253045 66.03319425 -93.62817383 62.80395508 C-93.63655273 61.89194336 -93.64493164 60.97993164 -93.65356445 60.0402832 C-93.65678711 59.15405273 -93.66000977 58.26782227 -93.66333008 57.35473633 C-93.66856689 56.54302979 -93.67380371 55.73132324 -93.67919922 54.89501953 C-93.55857343 52.34112521 -93.0899805 49.99033309 -92.56567383 47.49145508 C-92.52372928 45.5960858 -92.52430124 43.69933692 -92.56567383 41.80395508 C-92.67592026 36.71194794 -92.67592026 36.71194794 -91.56567383 34.49145508 C-90.90567383 34.49145508 -90.24567383 34.49145508 -89.56567383 34.49145508 C-89.73969727 33.35708008 -89.9137207 32.22270508 -90.09301758 31.05395508 C-90.66618769 26.46859416 -90.47463853 22.08709037 -90.12817383 17.49145508 C-90.0759668 16.71672852 -90.02375977 15.94200195 -89.9699707 15.14379883 C-89.84200481 13.25921021 -89.70481787 11.37525137 -89.56567383 9.49145508 C-92.86567383 8.83145508 -96.16567383 8.17145508 -99.56567383 7.49145508 C-99.56567383 6.17145508 -99.56567383 4.85145508 -99.56567383 3.49145508 C-89.9799642 1.91225724 -80.37925154 0.68085537 -70.72290039 -0.3684082 C-69.13890899 -0.54287216 -67.55553547 -0.72305684 -65.97290039 -0.90942383 C-43.76945378 -3.52132112 -22.15334066 -2.81839633 0 0 Z M-85.56567383 10.49145508 C-85.62389318 14.38722532 -85.65934413 18.28288309 -85.69067383 22.17895508 C-85.70743164 23.28174805 -85.72418945 24.38454102 -85.74145508 25.52075195 C-85.74790039 26.58745117 -85.7543457 27.65415039 -85.76098633 28.75317383 C-85.77145996 29.7324585 -85.78193359 30.71174316 -85.79272461 31.72070312 C-85.55165067 34.6625828 -84.79622925 36.82383234 -83.56567383 39.49145508 C-83.23567383 39.49145508 -82.90567383 39.49145508 -82.56567383 39.49145508 C-82.39551758 38.62004883 -82.22536133 37.74864258 -82.05004883 36.85083008 C-80.57834635 29.61756895 -78.81939999 22.77904746 -76.33520508 15.81958008 C-75.46106145 13.58363084 -75.46106145 13.58363084 -75.56567383 11.49145508 C-78.86567383 11.16145508 -82.16567383 10.83145508 -85.56567383 10.49145508 Z M-84.56567383 40.49145508 C-84.56567383 42.80145508 -84.56567383 45.11145508 -84.56567383 47.49145508 C-84.23567383 47.49145508 -83.90567383 47.49145508 -83.56567383 47.49145508 C-83.56567383 45.18145508 -83.56567383 42.87145508 -83.56567383 40.49145508 C-83.89567383 40.49145508 -84.22567383 40.49145508 -84.56567383 40.49145508 Z M-83.56567383 47.49145508 C-82.56567383 49.49145508 -82.56567383 49.49145508 -82.56567383 49.49145508 Z " fill="#F7C128" transform="translate(117.565673828125,6.508544921875)"/>
<path d="M0 0 C3.44841618 0.43869866 6.89892822 0.85635008 10.3503418 1.27075195 C12.55425993 1.53977272 14.75804218 1.80990966 16.96166992 2.08129883 C18.50189064 2.27042091 18.50189064 2.27042091 20.07322693 2.46336365 C21.01344193 2.58341263 21.95365692 2.70346161 22.92236328 2.82714844 C23.74852646 2.93151718 24.57468964 3.03588593 25.42588806 3.14341736 C27.43432617 3.49145508 27.43432617 3.49145508 29.43432617 4.49145508 C29.43432617 5.81145508 29.43432617 7.13145508 29.43432617 8.49145508 C22.17432617 9.81145508 14.91432617 11.13145508 7.43432617 12.49145508 C8.07521988 18.25949847 8.74811841 23.46191598 9.99682617 29.05395508 C10.26624023 30.27211914 10.5356543 31.4902832 10.81323242 32.74536133 C11.01819336 33.65157227 11.2231543 34.5577832 11.43432617 35.49145508 C9.76370117 35.64614258 9.76370117 35.64614258 8.05932617 35.80395508 C-0.36220774 36.73287127 -0.36220774 36.73287127 -7.56567383 40.49145508 C-7.6066032 42.82442941 -7.60809106 45.15850732 -7.56567383 47.49145508 C-11.08422542 46.08403444 -11.95180217 44.82678985 -13.56567383 41.49145508 C-15.05067383 40.99645508 -15.05067383 40.99645508 -16.56567383 40.49145508 C-15.57567383 42.47145508 -15.57567383 42.47145508 -14.56567383 44.49145508 C-15.36489258 44.47985352 -16.16411133 44.46825195 -16.98754883 44.45629883 C-22.62486682 44.40998284 -28.09062573 44.50283379 -33.69067383 45.17895508 C-42.57463543 46.01109396 -50.42848451 42.71562443 -58.56567383 39.49145508 C-58.56567383 40.15145508 -58.56567383 40.81145508 -58.56567383 41.49145508 C-60.21567383 41.16145508 -61.86567383 40.83145508 -63.56567383 40.49145508 C-63.56567383 39.50145508 -63.56567383 38.51145508 -63.56567383 37.49145508 C-64.1921582 37.4424707 -64.81864258 37.39348633 -65.46411133 37.34301758 C-66.28137695 37.26825195 -67.09864258 37.19348633 -67.94067383 37.11645508 C-68.7527832 37.0468457 -69.56489258 36.97723633 -70.40161133 36.90551758 C-72.56567383 36.49145508 -72.56567383 36.49145508 -74.56567383 34.49145508 C-77.22104755 33.92625505 -79.85712096 33.7535731 -82.56567383 33.49145508 C-81.77705113 30.76137574 -80.98489197 28.03240674 -80.19067383 25.30395508 C-79.8580957 24.15056641 -79.8580957 24.15056641 -79.51879883 22.97387695 C-78.37578313 19.05736729 -77.17665188 15.24789456 -75.56567383 11.49145508 C-78.86567383 11.16145508 -82.16567383 10.83145508 -85.56567383 10.49145508 C-85.89567383 9.17145508 -86.22567383 7.85145508 -86.56567383 6.49145508 C-83.7704527 3.69623395 -81.82073997 4.10674142 -77.90551758 3.89379883 C-77.24161514 3.85460831 -76.57771271 3.81541779 -75.89369202 3.77503967 C-73.76391234 3.65088869 -71.63370353 3.53941629 -69.50317383 3.42895508 C-66.72040774 3.27508561 -63.9379417 3.11622066 -61.15551758 2.95629883 C-59.84437988 2.88137207 -58.53324219 2.80644531 -57.18237305 2.72924805 C-52.95232842 2.45112847 -48.77084337 2.0212033 -44.56567383 1.49145508 C-52.69679812 1.33954617 -60.73182894 1.80396904 -68.82714844 2.49853516 C-70.28957553 2.61978879 -71.75287004 2.73096334 -73.21679688 2.83251953 C-75.35510768 2.9814058 -77.48892664 3.16067264 -79.62426758 3.34692383 C-80.88553467 3.44642334 -82.14680176 3.54592285 -83.44628906 3.6484375 C-86.75967302 4.20093815 -86.75967302 4.20093815 -88.49951172 7.06298828 C-88.85134521 7.86438232 -89.20317871 8.66577637 -89.56567383 9.49145508 C-92.86567383 8.83145508 -96.16567383 8.17145508 -99.56567383 7.49145508 C-99.56567383 6.17145508 -99.56567383 4.85145508 -99.56567383 3.49145508 C-89.9799642 1.91225724 -80.37925154 0.68085537 -70.72290039 -0.3684082 C-69.13890899 -0.54287216 -67.55553547 -0.72305684 -65.97290039 -0.90942383 C-43.76945378 -3.52132112 -22.15334066 -2.81839633 0 0 Z " fill="#3D3D3D" transform="translate(117.565673828125,6.508544921875)"/>
<path d="M0 0 C0.49306641 1.051875 0.49306641 1.051875 0.99609375 2.125 C4.48210991 9.07813792 8.28152153 14.82364852 15 19 C19.05937851 19.39797828 20.54457192 18.27515446 24 16.1875 C27.82035606 12.8347396 29.42205996 8.1604489 31.3125 3.546875 C33 1 33 1 35.73046875 0.01171875 C46.02752114 -0.02518825 56.98531943 5.54950236 64.49658203 12.35620117 C67.0837855 15.1849834 68.19790496 18.67116201 69.625 22.1875 C69.93695313 22.91775391 70.24890625 23.64800781 70.5703125 24.40039062 C70.869375 25.12806641 71.1684375 25.85574219 71.4765625 26.60546875 C71.74549316 27.25668701 72.01442383 27.90790527 72.29150391 28.57885742 C73.28012384 31.95726676 73.56338683 35.50709462 74 39 C36.05 39 -1.9 39 -41 39 C-39.8987232 29.08850879 -37.68136866 18.68663098 -31.14453125 10.74609375 C-29.16226623 9.18071746 -27.27929401 8.08575827 -25 7 C-24.12988281 6.54625 -23.25976562 6.0925 -22.36328125 5.625 C-15.08003755 2.04940477 -8.14099174 -0.15601204 0 0 Z " fill="#343434" transform="translate(65,121)"/>
<path d="M0 0 C6.0546875 -0.1953125 6.0546875 -0.1953125 8 0 C8.66 0.66 9.32 1.32 10 2 C12.32173505 2.57510868 14.64438348 2.9509944 17.00390625 3.33984375 C17.66261719 3.55769531 18.32132813 3.77554688 19 4 C19.33 4.99 19.66 5.98 20 7 C22.01508358 7.73323796 22.01508358 7.73323796 24 8 C24 7.34 24 6.68 24 6 C28.03255287 6.42899499 31.5556686 7.12396672 35.375 8.5 C42.16195315 10.85866856 47.95271255 11.24363896 55 10 C59.00134905 9.90730466 62.99825316 9.94172213 67 10 C66.505 8.515 66.505 8.515 66 7 C67.8125 7.1875 67.8125 7.1875 70 8 C71.6875 10.5625 71.6875 10.5625 73 13 C73.33 13 73.66 13 74 13 C73.9175 12.071875 73.835 11.14375 73.75 10.1875 C74 7 74 7 75.640625 5.41015625 C78.39303699 3.76508882 80.88765436 3.01252468 84 2.25 C85.03125 1.98703125 86.0625 1.7240625 87.125 1.453125 C89.88858155 1.01756052 91.41581071 1.01896518 94 2 C96.21820484 4.21820484 95.24852325 8.7380614 95.25317383 11.72802734 C95.15097323 18.72181892 93.69636074 25.22990872 92 32 C91.45598556 34.41613924 90.91422439 36.83278722 90.375 39.25 C89.12946429 44.74107143 89.12946429 44.74107143 88 47 C87.92883618 49.37402501 87.91590915 51.75000677 87.9375 54.125 C87.94652344 55.40632813 87.95554687 56.68765625 87.96484375 58.0078125 C87.97644531 58.99523437 87.98804687 59.98265625 88 61 C86.515 61.495 86.515 61.495 85 62 C84.67 62.99 84.34 63.98 84 65 C80.7 65 77.4 65 74 65 C73.01 66.98 73.01 66.98 72 69 C70.64338118 70.17199022 69.24396427 71.29570128 67.8125 72.375 C65.64676315 74.096373 65.64676315 74.096373 64 76 C63.79172045 79.36223534 63.79172045 79.36223534 65 82 C64.34 82 63.68 82 63 82 C62.88914063 82.7321875 62.77828125 83.464375 62.6640625 84.21875 C61.23816443 90.1907466 57.23403558 95.36753887 52.4375 99.125 C49 101 49 101 46.5390625 100.81640625 C40.08678497 98.74175086 35.23475585 92.72302958 32 87 C30.46416704 83.92833407 29.93587474 82.50231454 30.375 79.0625 C30.32425196 75.98169896 30.32425196 75.98169896 28.3671875 74.42578125 C26.93892833 73.37962093 25.48863686 72.36297995 24.01953125 71.375 C22 70 22 70 19.9375 67.875 C17.24977458 65.2739754 14.29004095 63.77156051 11 62 C11 61.01 11 60.02 11 59 C9.68 59 8.36 59 7 59 C7.33 55.04 7.66 51.08 8 47 C8.66 47 9.32 47 10 47 C10.99 49.97 11.98 52.94 13 56 C13.66 56 14.32 56 15 56 C15 56.66 15 57.32 15 58 C15.99 58.33 16.98 58.66 18 59 C19.578125 60.63671875 19.578125 60.63671875 21.25 62.6875 C28.64713755 71.34075524 35.36907073 75.93188493 46.87890625 76.94921875 C49.67955247 77.01626921 52.27591753 76.62863442 55 76 C55.495 74.515 55.495 74.515 56 73 C57.98563652 71.97177453 59.98809782 70.97583279 62 70 C64.69800739 67.9799708 64.69800739 67.9799708 67.1875 65.6875 C68.02667969 64.94886719 68.86585937 64.21023437 69.73046875 63.44921875 C72.00863947 60.99067651 75 57.5726675 75 54 C77.5 47.5 77.5 47.5 79 46 C78.83886719 45.40703125 78.67773438 44.8140625 78.51171875 44.203125 C77.9299693 41.69849379 78.26180963 40.23929957 78.8125 37.75 C79.36875455 33.65949396 78.6253134 31.75269068 76.1875 28.4375 C74.63680179 26.45632667 74.63680179 26.45632667 73 25 C72.34 25 71.68 25 71 25 C71.99 25.99 71.99 25.99 73 27 C73.54587156 33.00458716 73.54587156 33.00458716 71.9375 35.9375 C68.8347167 37.63902633 66.46230815 37.42519574 63 37 C60.21046818 35.06878566 59.17917937 33.97268799 58.5625 30.625 C59.15056571 27.09660572 59.87919305 24.91610956 62 22 C64.76274692 21.16082244 67.07339597 21.09595423 70 21 C69.505 19.02 69.505 19.02 69 17 C65.7 16.67 62.4 16.34 59 16 C59 15.01 59 14.02 59 13 C57.865625 13.33 56.73125 13.66 55.5625 14 C47.98403453 15.87122604 41.42735138 15.16068404 34 13 C34 13.99 34 14.98 34 16 C33.26394531 16.06058594 32.52789062 16.12117188 31.76953125 16.18359375 C30.30580078 16.30927734 30.30580078 16.30927734 28.8125 16.4375 C27.84957031 16.51871094 26.88664062 16.59992187 25.89453125 16.68359375 C23.21350398 16.97666151 20.6337014 17.42703754 18 18 C18.33 17.01 18.66 16.02 19 15 C23.75016635 12.7987034 27.88081854 12.8234765 33 13 C32.505 12.01 32.505 12.01 32 11 C29.42048126 10.30906104 29.42048126 10.30906104 26.4375 9.875 C25.42558594 9.70742188 24.41367187 9.53984375 23.37109375 9.3671875 C22.58863281 9.24601562 21.80617188 9.12484375 21 9 C21 10.32 21 11.64 21 13 C18.03 12.505 18.03 12.505 15 12 C14.731875 12.9075 14.46375 13.815 14.1875 14.75 C13 18 13 18 11.46875 19.8125 C9.55013463 22.67001225 9.49798794 24.83702192 9.3125 28.25 C9.24675781 29.32765625 9.18101563 30.4053125 9.11328125 31.515625 C9.07589844 32.33546875 9.03851563 33.1553125 9 34 C8.34 34 7.68 34 7 34 C6.45764192 21.5860262 6.45764192 21.5860262 10 16 C11.57394142 12.52076108 12 10.9337213 12 7 C8.81237635 4.87491756 6.73487777 4.4979837 3 4 C3 3.34 3 2.68 3 2 C2.01 2.33 1.02 2.66 0 3 C0 2.01 0 1.02 0 0 Z " fill="#D29512" transform="translate(35,40)"/>
<path d="M0 0 C6.0546875 -0.1953125 6.0546875 -0.1953125 8 0 C8.66 0.66 9.32 1.32 10 2 C12.32173505 2.57510868 14.64438348 2.9509944 17.00390625 3.33984375 C17.66261719 3.55769531 18.32132813 3.77554688 19 4 C19.33 4.99 19.66 5.98 20 7 C22.01508358 7.73323796 22.01508358 7.73323796 24 8 C24 7.34 24 6.68 24 6 C28.03255287 6.42899499 31.5556686 7.12396672 35.375 8.5 C42.16195315 10.85866856 47.95271255 11.24363896 55 10 C59.00134905 9.90730466 62.99825316 9.94172213 67 10 C66.505 8.515 66.505 8.515 66 7 C67.8125 7.1875 67.8125 7.1875 70 8 C71.75 10.5625 71.75 10.5625 73 13 C73.61875 12.34 74.2375 11.68 74.875 11 C77 9 77 9 79 9 C85.69775307 16.57137304 86.30872842 25.3937087 87 35 C86.01 35.495 86.01 35.495 85 36 C84.34 32.7 83.68 29.4 83 26 C83.02320312 26.76183594 83.04640625 27.52367188 83.0703125 28.30859375 C83.18564838 34.90745394 82.70064133 40.62259502 81 47 C79.515 46.505 79.515 46.505 78 46 C78.14179687 45.154375 78.28359375 44.30875 78.4296875 43.4375 C79.54429208 35.33884202 79.54429208 35.33884202 76.1875 28.1875 C74.64350857 26.30814843 74.64350857 26.30814843 73 25 C72.34 25 71.68 25 71 25 C71.99 25.99 71.99 25.99 73 27 C73.54587156 33.00458716 73.54587156 33.00458716 71.9375 35.9375 C68.8347167 37.63902633 66.46230815 37.42519574 63 37 C60.21046818 35.06878566 59.17917937 33.97268799 58.5625 30.625 C59.15056571 27.09660572 59.87919305 24.91610956 62 22 C64.76274692 21.16082244 67.07339597 21.09595423 70 21 C69.505 19.02 69.505 19.02 69 17 C65.7 16.67 62.4 16.34 59 16 C59 15.01 59 14.02 59 13 C57.865625 13.33 56.73125 13.66 55.5625 14 C47.98403453 15.87122604 41.42735138 15.16068404 34 13 C34 13.99 34 14.98 34 16 C33.26394531 16.06058594 32.52789062 16.12117188 31.76953125 16.18359375 C30.30580078 16.30927734 30.30580078 16.30927734 28.8125 16.4375 C27.84957031 16.51871094 26.88664062 16.59992187 25.89453125 16.68359375 C23.21350398 16.97666151 20.6337014 17.42703754 18 18 C18.33 17.01 18.66 16.02 19 15 C23.75016635 12.7987034 27.88081854 12.8234765 33 13 C32.505 12.01 32.505 12.01 32 11 C29.42048126 10.30906104 29.42048126 10.30906104 26.4375 9.875 C25.42558594 9.70742188 24.41367187 9.53984375 23.37109375 9.3671875 C22.58863281 9.24601562 21.80617188 9.12484375 21 9 C21 10.32 21 11.64 21 13 C18.03 12.505 18.03 12.505 15 12 C14.731875 12.9075 14.46375 13.815 14.1875 14.75 C13 18 13 18 11.46875 19.8125 C9.55013463 22.67001225 9.49798794 24.83702192 9.3125 28.25 C9.24675781 29.32765625 9.18101563 30.4053125 9.11328125 31.515625 C9.07589844 32.33546875 9.03851563 33.1553125 9 34 C8.34 34 7.68 34 7 34 C6.45764192 21.5860262 6.45764192 21.5860262 10 16 C11.57394142 12.52076108 12 10.9337213 12 7 C8.81237635 4.87491756 6.73487777 4.4979837 3 4 C3 3.34 3 2.68 3 2 C2.01 2.33 1.02 2.66 0 3 C0 2.01 0 1.02 0 0 Z M78 47 C78.66 47.33 79.32 47.66 80 48 C79.1875 50.4375 79.1875 50.4375 78 53 C77.01 53.33 76.02 53.66 75 54 C76.875 49.25 76.875 49.25 78 47 Z " fill="#BE8517" transform="translate(35,40)"/>
<path d="M0 0 C1.21236328 0.02707031 1.21236328 0.02707031 2.44921875 0.0546875 C3.37154297 0.08949219 3.37154297 0.08949219 4.3125 0.125 C4.8075 2.6 4.8075 2.6 5.3125 5.125 C11.51854916 6.86269377 17.70444233 7.26280271 24.125 7.25 C25.43082031 7.25257812 26.73664063 7.25515625 28.08203125 7.2578125 C31.20288678 7.35067955 31.20288678 7.35067955 33.3125 6.125 C34.7634942 6.10900564 36.21558507 6.1591851 37.6640625 6.24609375 C38.51484375 6.29443359 39.365625 6.34277344 40.2421875 6.39257812 C41.13164063 6.44865234 42.02109375 6.50472656 42.9375 6.5625 C43.8346875 6.61470703 44.731875 6.66691406 45.65625 6.72070312 C47.87534012 6.8505435 50.09399871 6.98551339 52.3125 7.125 C52.3125 7.785 52.3125 8.445 52.3125 9.125 C51.74144531 9.19493164 51.17039062 9.26486328 50.58203125 9.33691406 C38.12491674 10.87672432 25.73762996 12.6154851 13.38476562 14.85449219 C12.44439453 15.01981445 11.50402344 15.18513672 10.53515625 15.35546875 C9.71797119 15.50395264 8.90078613 15.65243652 8.05883789 15.80541992 C1.73670579 16.54110051 -3.98980552 16.07033102 -10.23046875 14.91796875 C-10.9207869 14.7919075 -11.61110504 14.66584625 -12.32234192 14.53596497 C-13.77418573 14.26941636 -15.22541331 13.99949082 -16.67602539 13.72631836 C-18.85103067 13.31701071 -21.02776695 12.91832206 -23.20507812 12.52148438 C-31.75801684 10.94754531 -40.23244449 9.16751856 -48.6875 7.125 C-48.3575 6.465 -48.0275 5.805 -47.6875 5.125 C-44.87109375 4.73022461 -44.87109375 4.73022461 -41.125 4.52734375 C-40.45968262 4.48815323 -39.79436523 4.44896271 -39.10888672 4.40858459 C-36.968826 4.28416137 -34.8283293 4.17283468 -32.6875 4.0625 C-21.94841987 3.47080498 -9.90031104 -0.28696554 0 0 Z " fill="#554F46" transform="translate(80.6875,5.875)"/>
<path d="M0 0 C-0.33 0.66 -0.66 1.32 -1 2 C-3.38574219 2.39477539 -3.38574219 2.39477539 -6.546875 2.59765625 C-8.28130859 2.71657227 -8.28130859 2.71657227 -10.05078125 2.83789062 C-11.88189453 2.94907227 -11.88189453 2.94907227 -13.75 3.0625 C-16.11980311 3.2198799 -18.48959481 3.37743161 -20.859375 3.53515625 C-22.61797852 3.64754639 -22.61797852 3.64754639 -24.41210938 3.76220703 C-29.94496401 4.12890548 -35.47242425 4.56164181 -41 5 C-42.64187761 10.36697207 -41.91684485 15.89866467 -41.6875 21.4375 C-41.65205078 22.56994141 -41.61660156 23.70238281 -41.58007812 24.86914062 C-41.53689453 25.96291016 -41.49371094 27.05667969 -41.44921875 28.18359375 C-41.41143311 29.17931396 -41.37364746 30.17503418 -41.3347168 31.20092773 C-40.98621065 34.11531354 -40.18906516 36.32998474 -39 39 C-36.89572774 46.17011288 -36.71004104 53.5800729 -36.5625 61 C-36.52817871 61.93263672 -36.49385742 62.86527344 -36.45849609 63.82617188 C-36.41678143 70.35272853 -36.41678143 70.35272853 -39.02734375 73.25 C-43.26234759 74.3184898 -45.86346876 73.33210328 -50 72 C-50.02917228 68.77085248 -50.04685663 65.54173917 -50.0625 62.3125 C-50.07087891 61.40048828 -50.07925781 60.48847656 -50.08789062 59.54882812 C-50.09111328 58.66259766 -50.09433594 57.77636719 -50.09765625 56.86328125 C-50.10289307 56.05157471 -50.10812988 55.23986816 -50.11352539 54.40356445 C-49.9928996 51.84967013 -49.52430667 49.49887801 -49 47 C-48.95805545 45.10463073 -48.95862741 43.20788184 -49 41.3125 C-49.11024643 36.22049287 -49.11024643 36.22049287 -48 34 C-47.34 34 -46.68 34 -46 34 C-46.25523438 32.30423828 -46.25523438 32.30423828 -46.515625 30.57421875 C-47.09108725 25.94093136 -47.00742026 21.46556618 -46.75 16.8125 C-46.72292969 16.03197266 -46.69585937 15.25144531 -46.66796875 14.44726562 C-46.60802734 13.30741211 -46.60802734 13.30741211 -46.546875 12.14453125 C-46.51432617 11.46753174 -46.48177734 10.79053223 -46.44824219 10.09301758 C-45.81253062 7.12463235 -44.93486135 5.35808115 -43 3 C-39.89648438 2.15698242 -39.89648438 2.15698242 -36.09375 1.85546875 C-35.41380981 1.79595535 -34.73386963 1.73644196 -34.0333252 1.67512512 C-31.85670391 1.49060267 -29.67912866 1.33919012 -27.5 1.1875 C-26.06493189 1.06780301 -24.63003141 0.94607801 -23.1953125 0.82226562 C-15.46089472 0.18095126 -7.76417912 -0.17749661 0 0 Z M-41 40 C-41 42.31 -41 44.62 -41 47 C-40.67 47 -40.34 47 -40 47 C-40 44.69 -40 42.38 -40 40 C-40.33 40 -40.66 40 -41 40 Z M-40 47 C-39 49 -39 49 -39 49 Z " fill="#C69448" transform="translate(74,7)"/>
<path d="M0 0 C0.66 0 1.32 0 2 0 C2 0.66 2 1.32 2 2 C2.9075 1.938125 3.815 1.87625 4.75 1.8125 C8.28982642 2.01672076 9.44931155 2.64551835 12 5 C11.55740294 10.22264533 11.08529265 13.62916874 8 18 C6.64908472 20.70183055 6.66141942 23.11808206 6.4375 26.125 C6.35371094 27.22070312 6.26992188 28.31640625 6.18359375 29.4453125 C6.12300781 30.28835937 6.06242187 31.13140625 6 32 C6.66 32 7.32 32 8 32 C7.93039063 31.24976562 7.86078125 30.49953125 7.7890625 29.7265625 C7.35140756 21.4528 9.07969497 16.61898177 14 10 C16.97 10.495 16.97 10.495 20 11 C20 9.68 20 8.36 20 7 C28.57142857 6.71428571 28.57142857 6.71428571 32 9 C32 9.66 32 10.32 32 11 C31.24074219 11.13277344 30.48148438 11.26554687 29.69921875 11.40234375 C28.70535156 11.57894531 27.71148437 11.75554688 26.6875 11.9375 C25.70136719 12.11152344 24.71523438 12.28554688 23.69921875 12.46484375 C20.91810787 12.95746847 20.91810787 12.95746847 18 14 C17.67 14.66 17.34 15.32 17 16 C17.66 16.33 18.32 16.66 19 17 C18.195625 17.144375 17.39125 17.28875 16.5625 17.4375 C14.07896294 17.74135249 14.07896294 17.74135249 13 19 C12.76346477 21.52596259 12.57826308 24.03107207 12.4375 26.5625 C12.39431641 27.27341797 12.35113281 27.98433594 12.30664062 28.71679688 C12.20028223 30.47761912 12.09961154 32.2387832 12 34 C11.34 34 10.68 34 10 34 C10.30921884 35.45903258 10.62248799 36.91720722 10.9375 38.375 C11.11152344 39.18710938 11.28554688 39.99921875 11.46484375 40.8359375 C11.92330693 43.029463 11.92330693 43.029463 13 45 C13.06950541 46.54023996 13.08452357 48.08334988 13.0625 49.625 C13.05347656 50.44226563 13.04445313 51.25953125 13.03515625 52.1015625 C13.02355469 52.72804687 13.01195312 53.35453125 13 54 C10.3144406 51.3144406 9.93950026 48.62378672 9 45 C8.34 45 7.68 45 7 45 C7.01160156 45.61488281 7.02320313 46.22976562 7.03515625 46.86328125 C7.04417969 47.67152344 7.05320312 48.47976562 7.0625 49.3125 C7.07410156 50.11300781 7.08570313 50.91351563 7.09765625 51.73828125 C7 54 7 54 6 57 C7.32 57 8.64 57 10 57 C10.33 58.32 10.66 59.64 11 61 C10.01 61 9.02 61 8 61 C8 60.34 8 59.68 8 59 C6.68 59 5.36 59 4 59 C4.03480469 58.10539062 4.06960937 57.21078125 4.10546875 56.2890625 C4.25786796 49.48189784 3.96798621 43.85658767 1.734375 37.4296875 C-0.24549535 30.8792654 -0.14059775 23.76373721 0.0625 16.97265625 C0.07078644 14.98699174 0.07078644 14.98699174 -0.4921875 13.0703125 C-1.09822466 10.59954561 -1.13250834 8.35407287 -1.125 5.8125 C-1.12757812 4.93207031 -1.13015625 4.05164062 -1.1328125 3.14453125 C-1 1 -1 1 0 0 Z " fill="#E6AA1A" transform="translate(36,42)"/>
<path d="M0 0 C2.21820484 2.21820484 1.24852325 6.7380614 1.25317383 9.72802734 C1.15097323 16.72181892 -0.30363926 23.22990872 -2 30 C-2.54401444 32.41613924 -3.08577561 34.83278722 -3.625 37.25 C-4.87053571 42.74107143 -4.87053571 42.74107143 -6 45 C-6.07116382 47.37402501 -6.08409085 49.75000677 -6.0625 52.125 C-6.05347656 53.40632813 -6.04445313 54.68765625 -6.03515625 56.0078125 C-6.02355469 56.99523437 -6.01195313 57.98265625 -6 59 C-7.485 59.495 -7.485 59.495 -9 60 C-9.33 60.99 -9.66 61.98 -10 63 C-10.66 63 -11.32 63 -12 63 C-12 61.35 -12 59.7 -12 58 C-10.68 58 -9.36 58 -8 58 C-8.03552979 57.36497559 -8.07105957 56.72995117 -8.10766602 56.07568359 C-8.26606851 53.17578092 -8.41436884 50.27544474 -8.5625 47.375 C-8.61857422 46.37597656 -8.67464844 45.37695312 -8.73242188 44.34765625 C-8.9805589 39.35183079 -8.89680075 34.93599131 -8 30 C-8.38248411 22.65994781 -9.55852773 16.4513513 -13.9765625 10.48828125 C-15 9 -15 9 -15 7 C-16.32 7.99 -17.64 8.98 -19 10 C-19.33 8.35 -19.66 6.7 -20 5 C-16.8335822 2.29027707 -14.03063577 1.23750576 -10 0.25 C-8.453125 -0.14445312 -8.453125 -0.14445312 -6.875 -0.546875 C-4.11141845 -0.98243948 -2.58418929 -0.98103482 0 0 Z " fill="#C88D16" transform="translate(129,42)"/>
<path d="M0 0 C7.98994698 0.54053142 15.66898194 1.78962319 23.5 3.4375 C27.66526288 4.29866171 31.83165267 5.1538897 36 6 C36.97324219 6.19996582 37.94648437 6.39993164 38.94921875 6.60595703 C39.88378906 6.78884277 40.81835938 6.97172852 41.78125 7.16015625 C42.59658203 7.32265869 43.41191406 7.48516113 44.25195312 7.65258789 C50.83914576 8.48535043 56.93425121 7.86475554 63.41796875 6.72265625 C64.19707108 6.59185165 64.9761734 6.46104706 65.77888489 6.32627869 C68.24951411 5.91117494 70.7186105 5.48782002 73.1875 5.0625 C83.79133977 3.23896328 94.23839339 1.54777168 105 1 C105 1.66 105 2.32 105 3 C102.22243798 4.22539501 99.82633424 5.02724169 96.8125 5.5 C93.87252617 5.74585812 93.87252617 5.74585812 92 8 C91.505 7.01 91.505 7.01 91 6 C90.49855469 6.17015625 89.99710937 6.3403125 89.48046875 6.515625 C82.70264733 8.6863753 75.83493645 10.1544926 68.8659668 11.55371094 C65.29481343 12.27681541 61.87609482 13.03906436 58.39453125 14.13671875 C54.50565725 15.12571893 51.36784208 15.05901833 47.375 14.75 C45.46847656 14.61851563 45.46847656 14.61851563 43.5234375 14.484375 C39.60008373 13.9450226 36.25602156 13.41985046 33.5625 10.375 C31.19246794 8.28937179 29.06337324 8.87496436 26 9 C25.29875 8.814375 24.5975 8.62875 23.875 8.4375 C21.6142431 7.90999006 20.18484708 8.29772772 18 9 C18 8.01 18 7.02 18 6 C12.01270113 4.88482498 6.03748977 3.80499864 0 3 C0 2.01 0 1.02 0 0 Z " fill="#2A2B2B" transform="translate(31,13)"/>
<path d="M0 0 C1.32 0.66 2.64 1.32 4 2 C4 2.66 4 3.32 4 4 C4.66 4 5.32 4 6 4 C7.51406396 7.02812792 7.46731151 10.23285718 7.6875 13.5625 C7.75892212 14.64144531 7.75892212 14.64144531 7.83178711 15.7421875 C8.11651611 21.17959287 7.59077337 25.75980537 6 31 C5.01 30.67 4.02 30.34 3 30 C3.14179687 29.154375 3.28359375 28.30875 3.4296875 27.4375 C4.54429208 19.33884202 4.54429208 19.33884202 1.1875 12.1875 C-0.35649143 10.30814843 -0.35649143 10.30814843 -2 9 C-2.66 9 -3.32 9 -4 9 C-3.34 9.66 -2.68 10.32 -2 11 C-1.45412844 17.00458716 -1.45412844 17.00458716 -3.0625 19.9375 C-6.1652833 21.63902633 -8.53769185 21.42519574 -12 21 C-14.78953182 19.06878566 -15.82082063 17.97268799 -16.4375 14.625 C-15.84943429 11.09660572 -15.12080695 8.91610956 -13 6 C-10.23725308 5.16082244 -7.92660403 5.09595423 -5 5 C-4.67 4.01 -4.34 3.02 -4 2 C-2.68 2.33 -1.36 2.66 0 3 C0 2.01 0 1.02 0 0 Z M3 31 C3.66 31.33 4.32 31.66 5 32 C4.1875 34.4375 4.1875 34.4375 3 37 C2.01 37.33 1.02 37.66 0 38 C1.875 33.25 1.875 33.25 3 31 Z " fill="#EBB221" transform="translate(110,56)"/>
<path d="M0 0 C0 0.66 0 1.32 0 2 C0.99 2 1.98 2 3 2 C3.875 4.0625 3.875 4.0625 4 7 C1.37584096 11.28300243 -2.32504559 15.08206998 -7 17 C-11.14519394 16.62008042 -13.23694843 15.30604803 -16.25 12.5 C-16.93578125 11.8709375 -17.6215625 11.241875 -18.328125 10.59375 C-20.99275152 8.05363874 -20.99275152 8.05363874 -21.3125 5.6875 C-21 3 -21 3 -19.625 0.6875 C-14.00829451 -2.92323925 -6.3093409 -1.09727668 0 0 Z " fill="#E0A61D" transform="translate(91,124)"/>
<path d="M0 0 C3.2278491 2.60817606 4.02041521 5.466831 5.1875 9.375 C5.53167969 10.49648437 5.87585938 11.61796875 6.23046875 12.7734375 C7 16 7 16 7 21 C1.06 21 -4.88 21 -11 21 C-9.99644128 9.62633452 -9.99644128 9.62633452 -5 5 C-4.113125 4.113125 -3.22625 3.22625 -2.3125 2.3125 C-1.549375 1.549375 -0.78625 0.78625 0 0 Z " fill="#2E2E2E" transform="translate(35,139)"/>
<path d="M0 0 C-1.25 1.5625 -1.25 1.5625 -3 3 C-3.639375 2.814375 -4.27875 2.62875 -4.9375 2.4375 C-5.618125 2.293125 -6.29875 2.14875 -7 2 C-9.14589423 3.89586384 -9.14589423 3.89586384 -11 6 C-11.66 6 -12.32 6 -13 6 C-13 5.34 -13 4.68 -13 4 C-13.99 3.505 -13.99 3.505 -15 3 C-14.67 2.34 -14.34 1.68 -14 1 C-21.63837979 1.58768251 -29.27314588 2.21181254 -36.90649414 2.86157227 C-39.50443602 3.07835159 -42.10309326 3.28672656 -44.70239258 3.48657227 C-48.43530037 3.77503394 -52.16460512 4.09347214 -55.89453125 4.41796875 C-57.64308159 4.54331245 -57.64308159 4.54331245 -59.42695618 4.67118835 C-60.50785019 4.77091446 -61.5887442 4.87064056 -62.70239258 4.97338867 C-63.65503494 5.05111008 -64.60767731 5.12883148 -65.58918762 5.20890808 C-68.25320923 5.81959068 -68.25320923 5.81959068 -69.83110046 8.56416321 C-70.21683731 9.36798935 -70.60257416 10.17181549 -71 11 C-74.3 10.34 -77.6 9.68 -81 9 C-81 7.68 -81 6.36 -81 5 C-70.61705781 3.28946207 -60.21052269 1.99974401 -49.75 0.875 C-48.92138458 0.78562164 -48.09276917 0.69624329 -47.23904419 0.60415649 C-13.5390223 -2.97030334 -13.5390223 -2.97030334 0 0 Z " fill="#2F3030" transform="translate(99,5)"/>
<path d="M0 0 C0.99257812 0.32484375 1.98515625 0.6496875 3.0078125 0.984375 C6.95822021 2.1085232 10.78486276 2.30521882 14.875 2.25 C15.92010742 2.24419922 15.92010742 2.24419922 16.98632812 2.23828125 C22.25994388 2.14997885 26.9443031 1.44448483 32 0 C32.66 1.98 33.32 3.96 34 6 C33.34 6 32.68 6 32 6 C31.814375 7.175625 31.814375 7.175625 31.625 8.375 C31 11 31 11 29 13 C28.67 12.01 28.34 11.02 28 10 C27.01 10 26.02 10 25 10 C25 9.34 25 8.68 25 8 C24.1028125 8.2784375 24.1028125 8.2784375 23.1875 8.5625 C21 9 21 9 18 8 C16.33732126 7.85779721 14.6684827 7.77979433 13 7.75 C12.13375 7.72421875 11.2675 7.6984375 10.375 7.671875 C7.97142005 7.80835818 7.97142005 7.80835818 6.3125 9.265625 C4.92843916 11.09456253 3.93698064 12.90981242 3 15 C-1.77676538 5.77448747 -1.77676538 5.77448747 0 0 Z " fill="#AB6F0C" transform="translate(66,116)"/>
<path d="M0 0 C0.66 0 1.32 0 2 0 C2.33 0.99 2.66 1.98 3 3 C3.66 3.33 4.32 3.66 5 4 C5 4.66 5 5.32 5 6 C5.66 6 6.32 6 7 6 C7 6.66 7 7.32 7 8 C7.99 8 8.98 8 10 8 C10.50512244 9.60256108 11.00391627 11.20711792 11.5 12.8125 C11.7784375 13.70582031 12.056875 14.59914062 12.34375 15.51953125 C13 18 13 18 13 21 C7.06 21 1.12 21 -5 21 C-4.67 18.69 -4.34 16.38 -4 14 C-3.01 13.67 -2.02 13.34 -1 13 C-1.01160156 12.31292969 -1.02320312 11.62585938 -1.03515625 10.91796875 C-1.04417969 10.01691406 -1.05320312 9.11585938 -1.0625 8.1875 C-1.07410156 7.29417969 -1.08570312 6.40085938 -1.09765625 5.48046875 C-1 3 -1 3 0 0 Z " fill="#2F2F2F" transform="translate(126,139)"/>
<path d="M0 0 C-3.57271651 2.11155844 -7.03500418 2.65001653 -11.109375 3.2890625 C-12.13783539 3.45128799 -12.13783539 3.45128799 -13.18707275 3.61679077 C-14.63559888 3.84350998 -16.08465281 4.06687917 -17.53417969 4.28710938 C-19.73012215 4.62196882 -21.92361127 4.97032618 -24.1171875 5.3203125 C-25.53112317 5.5398808 -26.94518228 5.75865594 -28.359375 5.9765625 C-29.63264648 6.17330566 -30.90591797 6.37004883 -32.21777344 6.57275391 C-38.12598267 7.24015425 -43.72567986 7.24272765 -49.59375 6.125 C-50.56054688 5.94453125 -51.52734375 5.7640625 -52.5234375 5.578125 C-53.50570312 5.38734375 -54.48796875 5.1965625 -55.5 5 C-56.51320313 4.80921875 -57.52640625 4.6184375 -58.5703125 4.421875 C-61.04817439 3.95435389 -63.52458268 3.48026672 -66 3 C-66 2.34 -66 1.68 -66 1 C-53.6983973 0.65293284 -53.6983973 0.65293284 -48.125 2.1875 C-43.82275472 3.17243374 -40.72450857 2.68604175 -36.4375 1.6875 C-29.20429852 0.01486862 -22.16318101 -0.47234287 -14.75 -0.75 C-13.64197021 -0.79423096 -12.53394043 -0.83846191 -11.39233398 -0.8840332 C-3.41273689 -1.13757896 -3.41273689 -1.13757896 0 0 Z " fill="#5E5F5E" transform="translate(122,15)"/>
<path d="M0 0 C2.21888872 3.32833307 3.08746683 6.49763639 4.0625 10.3125 C4.23587891 10.96412109 4.40925781 11.61574219 4.58789062 12.28710938 C5.60208766 16.16903597 6.40342706 20.03309748 7 24 C5.88625 24.103125 4.7725 24.20625 3.625 24.3125 C-4.79653391 25.24141619 -4.79653391 25.24141619 -12 29 C-12.04092937 31.33297433 -12.04241723 33.66705225 -12 36 C-15.51855159 34.59257936 -16.38612834 33.33533477 -18 30 C-18.99 29.67 -19.98 29.34 -21 29 C-20.34 30.32 -19.68 31.64 -19 33 C-24.61 33 -30.22 33 -36 33 C-33.51850375 30.51850375 -31.6105661 30.11677682 -28.25 29.125 C-27.08339844 28.77824219 -25.91679688 28.43148437 -24.71484375 28.07421875 C-19.92109987 26.68801521 -15.12539823 25.30946333 -10.32421875 23.94921875 C-5.86927274 22.67712488 -1.43245052 21.34811859 3 20 C2.34 19.67 1.68 19.34 1 19 C-1.05775332 13.30942292 -1.57603731 7.00150497 -1 1 C-0.67 0.67 -0.34 0.34 0 0 Z " fill="#814F10" transform="translate(122,18)"/>
<path d="M0 0 C0.57879501 17.20307384 0.57879501 17.20307384 -4.078125 22.25390625 C-4.71234375 22.83011719 -5.3465625 23.40632813 -6 24 C-6.32613281 23.18015625 -6.65226562 22.3603125 -6.98828125 21.515625 C-7.64376953 19.89914063 -7.64376953 19.89914063 -8.3125 18.25 C-8.74175781 17.18265625 -9.17101562 16.1153125 -9.61328125 15.015625 C-10.85088614 12.32427013 -12.23255722 10.34288927 -14 8 C-14.1875 5.25 -14.1875 5.25 -14 3 C-13.37351562 2.86722656 -12.74703125 2.73445313 -12.1015625 2.59765625 C-11.28429687 2.42105469 -10.46703125 2.24445312 -9.625 2.0625 C-8.81289062 1.88847656 -8.00078125 1.71445312 -7.1640625 1.53515625 C-0.95620438 0 -0.95620438 0 0 0 Z " fill="#E7AC1E" transform="translate(128,43)"/>
<path d="M0 0 C0.66 0 1.32 0 2 0 C2.99 2.97 3.98 5.94 5 9 C5.66 9 6.32 9 7 9 C7 9.66 7 10.32 7 11 C7.99 11.33 8.98 11.66 10 12 C11.578125 13.63671875 11.578125 13.63671875 13.25 15.6875 C22.81658074 26.87859445 31.54689933 29.27455961 46 31 C46 31.33 46 31.66 46 32 C33.47925355 32.5592393 24.52460716 32.33845434 14.8125 23.5 C13.99652344 22.71753906 13.18054687 21.93507813 12.33984375 21.12890625 C9.41717095 18.46971313 6.51986291 16.75993145 3 15 C3 14.01 3 13.02 3 12 C1.68 12 0.36 12 -1 12 C-0.67 8.04 -0.34 4.08 0 0 Z " fill="#D49612" transform="translate(43,87)"/>
<path d="M0 0 C7.90226107 0.54100996 15.50295855 1.75070744 23.25 3.375 C24.33595459 3.59760498 25.42190918 3.82020996 26.54077148 4.04956055 C28.69869694 4.49192805 30.85618329 4.93644403 33.01318359 5.38330078 C37.02592776 6.21182716 41.04366941 7.01412963 45.0625 7.8125 C47.04166667 8.20833333 49.02083333 8.60416667 51 9 C51 10.32 51 11.64 51 13 C37.8956743 13.38167939 37.8956743 13.38167939 33 11 C32.505 10.01 32.505 10.01 32 9 C31.0925 9.020625 30.185 9.04125 29.25 9.0625 C26 9 26 9 23.875 8.4375 C21.6142431 7.90999006 20.18484708 8.29772772 18 9 C18 8.01 18 7.02 18 6 C12.01270113 4.88482498 6.03748977 3.80499864 0 3 C0 2.01 0 1.02 0 0 Z " fill="#232425" transform="translate(31,13)"/>
<path d="M0 0 C7.68346772 2.77532922 14.5449064 5.79355515 19.67578125 12.33984375 C21.35777124 16.14645266 22.64201294 20.05172563 23.86328125 24.02734375 C23.20328125 24.02734375 22.54328125 24.02734375 21.86328125 24.02734375 C21.86328125 23.36734375 21.86328125 22.70734375 21.86328125 22.02734375 C21.20328125 22.02734375 20.54328125 22.02734375 19.86328125 22.02734375 C19.86328125 21.36734375 19.86328125 20.70734375 19.86328125 20.02734375 C18.87328125 19.69734375 17.88328125 19.36734375 16.86328125 19.02734375 C16.86328125 18.03734375 16.86328125 17.04734375 16.86328125 16.02734375 C15.87328125 16.35734375 14.88328125 16.68734375 13.86328125 17.02734375 C11.21576121 14.44949529 8.9189606 12.11086277 6.86328125 9.02734375 C6.86328125 8.36734375 6.86328125 7.70734375 6.86328125 7.02734375 C3.43780626 4.74369376 0.10671988 3.89333668 -3.82421875 2.90234375 C-4.52611328 2.72058594 -5.22800781 2.53882812 -5.95117188 2.3515625 C-7.67838143 1.90507296 -9.40738331 1.46552715 -11.13671875 1.02734375 C-11.79671875 2.34734375 -12.45671875 3.66734375 -13.13671875 5.02734375 C-14.13671875 2.02734375 -14.13671875 2.02734375 -13.13671875 -0.97265625 C-8.99029667 -3.04586729 -4.20796081 -1.30483467 0 0 Z " fill="#6C6D6E" transform="translate(111.13671875,122.97265625)"/>
<path d="M0 0 C0.66 0 1.32 0 2 0 C2 0.66 2 1.32 2 2 C2.9075 1.938125 3.815 1.87625 4.75 1.8125 C8.28982642 2.01672076 9.44931155 2.64551835 12 5 C11.609375 11.0546875 11.609375 11.0546875 11 13 C10.3503125 13.3196875 9.700625 13.639375 9.03125 13.96875 C6.79134693 14.8202259 6.79134693 14.8202259 6.171875 17.1640625 C6.03265625 17.97617187 5.8934375 18.78828125 5.75 19.625 C5.60046875 20.44226563 5.4509375 21.25953125 5.296875 22.1015625 C5.19890625 22.72804688 5.1009375 23.35453125 5 24 C0.39082072 19.98472057 -0.75927661 14.07450222 -1.22265625 8.15625 C-1.24690266 5.74546394 -1.25189896 3.39788431 -1 1 C-0.67 0.67 -0.34 0.34 0 0 Z " fill="#EBB122" transform="translate(36,42)"/>
<path d="M0 0 C0.66 1.65 1.32 3.3 2 5 C1.34 5 0.68 5 0 5 C0 4.34 0 3.68 0 3 C-6.67423927 4.59312764 -12.16194533 6.40735097 -18 10 C-19.24157767 10.54060361 -20.49178596 11.06183566 -21.75 11.5625 C-24.64372704 12.84241773 -25.94806131 13.73206776 -28 16 C-28.66 16 -29.32 16 -30 16 C-30.1546875 16.9590625 -30.1546875 16.9590625 -30.3125 17.9375 C-30.539375 18.618125 -30.76625 19.29875 -31 20 C-31.99 20.33 -32.98 20.66 -34 21 C-35.21869929 23.50447516 -35.21869929 23.50447516 -36 26 C-36.66 25.67 -37.32 25.34 -38 25 C-34.67562075 15.12275781 -31.48792022 10.42125187 -22.35546875 5.60546875 C-15.27614078 2.16976692 -7.98143192 -0.51493109 0 0 Z " fill="#616263" transform="translate(65,121)"/>
<path d="M0 0 C0.66 0 1.32 0 2 0 C2.12117188 0.78246094 2.24234375 1.56492188 2.3671875 2.37109375 C2.53476562 3.38300781 2.70234375 4.39492188 2.875 5.4375 C3.03742187 6.44683594 3.19984375 7.45617188 3.3671875 8.49609375 C3.57601562 9.32238281 3.78484375 10.14867187 4 11 C4.66 11.33 5.32 11.66 6 12 C5.67 18.27 5.34 24.54 5 31 C0 32 0 32 -3 31 C-3 26.71 -3 22.42 -3 18 C-2.67 18 -2.34 18 -2 18 C-1.93941406 17.03578125 -1.87882812 16.0715625 -1.81640625 15.078125 C-1.73261719 13.81484375 -1.64882813 12.5515625 -1.5625 11.25 C-1.48128906 9.99703125 -1.40007813 8.7440625 -1.31640625 7.453125 C-1.07484478 4.81682447 -0.75716066 2.51962706 0 0 Z " fill="#C4842B" transform="translate(30,49)"/>
<path d="M0 0 C1.21236328 0.02707031 1.21236328 0.02707031 2.44921875 0.0546875 C3.37154297 0.08949219 3.37154297 0.08949219 4.3125 0.125 C4.60125 0.74375 4.89 1.3625 5.1875 2 C6.24970042 4.25825765 6.24970042 4.25825765 8.3125 6.125 C8.69336916 9.01960562 8.47314945 10.75349816 7.3125 13.4375 C4.60714795 15.72014079 2.64471305 15.64086547 -0.8125 15.4375 C-2.6875 15.125 -2.6875 15.125 -4.6875 14.0625 C-6.25396819 11.02746787 -5.9864878 8.47366332 -5.6875 5.125 C-5.0275 4.135 -4.3675 3.145 -3.6875 2.125 C-5.6675 3.445 -7.6475 4.765 -9.6875 6.125 C-7.58496928 1.27300604 -5.24222142 -0.15194845 0 0 Z " fill="#1D160A" transform="translate(61.6875,61.875)"/>
<path d="M0 0 C-0.33 0.66 -0.66 1.32 -1 2 C-3.38574219 2.39477539 -3.38574219 2.39477539 -6.546875 2.59765625 C-8.28130859 2.71657227 -8.28130859 2.71657227 -10.05078125 2.83789062 C-11.88189453 2.94907227 -11.88189453 2.94907227 -13.75 3.0625 C-16.11980311 3.2198799 -18.48959481 3.37743161 -20.859375 3.53515625 C-22.03564453 3.61137207 -23.21191406 3.68758789 -24.42382812 3.76611328 C-28.01760151 4.00115116 -31.6107664 4.24028032 -35.203125 4.49609375 C-36.24629883 4.56884521 -37.28947266 4.64159668 -38.36425781 4.71655273 C-41.10487455 4.91663677 -41.10487455 4.91663677 -44 6 C-44 17.55 -44 29.1 -44 41 C-45.65 40.67 -47.3 40.34 -49 40 C-48.505 37.03 -48.505 37.03 -48 34 C-47.34 34 -46.68 34 -46 34 C-46.25523438 32.30423828 -46.25523438 32.30423828 -46.515625 30.57421875 C-47.09108725 25.94093136 -47.00742026 21.46556618 -46.75 16.8125 C-46.72292969 16.03197266 -46.69585937 15.25144531 -46.66796875 14.44726562 C-46.60802734 13.30741211 -46.60802734 13.30741211 -46.546875 12.14453125 C-46.51432617 11.46753174 -46.48177734 10.79053223 -46.44824219 10.09301758 C-45.81253062 7.12463235 -44.93486135 5.35808115 -43 3 C-39.89648438 2.15698242 -39.89648438 2.15698242 -36.09375 1.85546875 C-35.41380981 1.79595535 -34.73386963 1.73644196 -34.0333252 1.67512512 C-31.85670391 1.49060267 -29.67912866 1.33919012 -27.5 1.1875 C-26.06493189 1.06780301 -24.63003141 0.94607801 -23.1953125 0.82226562 C-15.46089472 0.18095126 -7.76417912 -0.17749661 0 0 Z " fill="#F4C977" transform="translate(74,7)"/>
<path d="M0 0 C6.0546875 -0.1953125 6.0546875 -0.1953125 8 0 C8.66 0.66 9.32 1.32 10 2 C12.32173505 2.57510868 14.64438348 2.9509944 17.00390625 3.33984375 C17.66261719 3.55769531 18.32132813 3.77554688 19 4 C19.33 4.99 19.66 5.98 20 7 C20.66 7.66 21.32 8.32 22 9 C21.625 11.125 21.625 11.125 21 13 C18.03 12.505 18.03 12.505 15 12 C14.731875 12.9075 14.46375 13.815 14.1875 14.75 C13 18 13 18 11.46875 19.8125 C9.55013463 22.67001225 9.49798794 24.83702192 9.3125 28.25 C9.24675781 29.32765625 9.18101563 30.4053125 9.11328125 31.515625 C9.07589844 32.33546875 9.03851563 33.1553125 9 34 C8.34 34 7.68 34 7 34 C6.45764192 21.5860262 6.45764192 21.5860262 10 16 C11.57394142 12.52076108 12 10.9337213 12 7 C8.81237635 4.87491756 6.73487777 4.4979837 3 4 C3 3.34 3 2.68 3 2 C2.01 2.33 1.02 2.66 0 3 C0 2.01 0 1.02 0 0 Z " fill="#D09621" transform="translate(35,40)"/>
<path d="M0 0 C8.57142857 -0.28571429 8.57142857 -0.28571429 12 2 C12 2.66 12 3.32 12 4 C11.24074219 4.13277344 10.48148438 4.26554687 9.69921875 4.40234375 C8.70535156 4.57894531 7.71148437 4.75554688 6.6875 4.9375 C5.20830078 5.19853516 5.20830078 5.19853516 3.69921875 5.46484375 C0.91810787 5.95746847 0.91810787 5.95746847 -2 7 C-2.33 7.66 -2.66 8.32 -3 9 C-2.34 9.33 -1.68 9.66 -1 10 C-1.804375 10.144375 -2.60875 10.28875 -3.4375 10.4375 C-5.92103706 10.74135249 -5.92103706 10.74135249 -7 12 C-7.23653523 14.52596259 -7.42173692 17.03107207 -7.5625 19.5625 C-7.60568359 20.27341797 -7.64886719 20.98433594 -7.69335938 21.71679688 C-7.79971777 23.47761912 -7.90038846 25.2387832 -8 27 C-8.99 27 -9.98 27 -11 27 C-13.12679646 22.74640707 -12.61130097 17.60403252 -12 13 C-10.38227445 9.35893842 -8.373458 6.19286612 -6 3 C-3.03 3.495 -3.03 3.495 0 4 C0 2.68 0 1.36 0 0 Z " fill="#E7AC1B" transform="translate(56,49)"/>
<path d="M0 0 C6.34507042 -0.35915493 6.34507042 -0.35915493 8.9375 1.0625 C10.6140629 4.11976176 10.36528977 6.5906288 10 10 C8.9375 11.9375 8.9375 11.9375 7 13 C3.0324729 13.504958 0.89345318 13.61854451 -2.4375 11.3125 C-4.28968623 8.57126438 -4.59716883 7.24177364 -4 4 C-3.01 3.34 -2.02 2.68 -1 2 C-1 2.66 -1 3.32 -1 4 C0.32 4 1.64 4 3 4 C3 3.01 3 2.02 3 1 C2.01 0.67 1.02 0.34 0 0 Z " fill="#1E1609" transform="translate(98,64)"/>
<path d="M0 0 C1.6442602 4.05861695 0.28397525 7.6184763 -0.875 11.625 C-1.06191406 12.305625 -1.24882813 12.98625 -1.44140625 13.6875 C-2.82327706 18.64655413 -2.82327706 18.64655413 -4 21 C-2.63875 20.87625 -2.63875 20.87625 -1.25 20.75 C3.40371513 20.75 7.40031648 22.31622599 11.74609375 23.85546875 C15.03779647 25.01329456 18.34818293 26.05094079 21.6875 27.0625 C23.79170886 27.70819586 25.895878 28.35402115 28 29 C28.91910156 29.27972656 29.83820313 29.55945313 30.78515625 29.84765625 C32.87597604 30.50704316 34.94167164 31.2452796 37 32 C37.33 32.66 37.66 33.32 38 34 C30.77754385 32.44761232 23.83952155 30.81627358 17 28 C17 28.66 17 29.32 17 30 C15.35 29.67 13.7 29.34 12 29 C12 28.01 12 27.02 12 26 C11.37351562 25.95101562 10.74703125 25.90203125 10.1015625 25.8515625 C9.28429687 25.77679688 8.46703125 25.70203125 7.625 25.625 C6.81289063 25.55539063 6.00078125 25.48578125 5.1640625 25.4140625 C3 25 3 25 1 23 C-1.65537372 22.43479997 -4.29144713 22.26211802 -7 22 C-6.2113773 19.26992066 -5.41921814 16.54095166 -4.625 13.8125 C-4.29242188 12.65911133 -4.29242188 12.65911133 -3.953125 11.48242188 C-2.8101093 7.56591221 -1.61097806 3.75643949 0 0 Z " fill="#70440C" transform="translate(42,18)"/>
<path d="M0 0 C-0.28895693 5.33075716 -0.56561757 10.32029392 -2.5625 15.3125 C-4.82815298 21.33957685 -4.24347109 27.66073415 -4 34 C-5.485 34.495 -5.485 34.495 -7 35 C-7.33 35.99 -7.66 36.98 -8 38 C-8.66 38 -9.32 38 -10 38 C-10 36.35 -10 34.7 -10 33 C-8.68 33 -7.36 33 -6 33 C-6.0407666 32.35450195 -6.0815332 31.70900391 -6.12353516 31.04394531 C-6.3021621 28.11319884 -6.46375364 25.18175194 -6.625 22.25 C-6.68945312 21.23421875 -6.75390625 20.2184375 -6.8203125 19.171875 C-6.871875 18.1921875 -6.9234375 17.2125 -6.9765625 16.203125 C-7.02893066 15.30239258 -7.08129883 14.40166016 -7.13525391 13.47363281 C-6.9877313 10.77562009 -6.28883137 9.33878714 -5 7 C-4.835 5.948125 -4.67 4.89625 -4.5 3.8125 C-4.335 2.884375 -4.17 1.95625 -4 1 C-2 0 -2 0 0 0 Z " fill="#E1A618" transform="translate(127,67)"/>
<path d="M0 0 C0.99 0.33 1.98 0.66 3 1 C2.01 1.5259375 2.01 1.5259375 1 2.0625 C-1.38022733 3.95386363 -1.38022733 3.95386363 -1.375 7.5625 C-1.35639408 11.06110754 -1.35639408 11.06110754 1 13 C2.90821061 13.35513379 2.90821061 13.35513379 5 13.3125 C6.051875 13.33763672 6.051875 13.33763672 7.125 13.36328125 C7.74375 13.24339844 8.3625 13.12351562 9 13 C11.4294516 9.3558226 11.16179575 7.28758728 11 3 C13 4.625 13 4.625 15 7 C15.25 10.25 15.25 10.25 15 13 C9.95691856 16.02584887 6.72775311 16.45458358 1 16 C-2.34349666 15.03410097 -5.07727738 13.99090185 -7 11 C-7.06812957 7.86603997 -6.75952853 5.89102899 -4.69140625 3.46484375 C-3.125 2.0625 -3.125 2.0625 0 0 Z " fill="#F7EAB3" transform="translate(58,63)"/>
<path d="M0 0 C0.99 0 1.98 0 3 0 C3.08696177 3.93736123 3.14037835 7.87447628 3.1875 11.8125 C3.21263672 12.93205078 3.23777344 14.05160156 3.26367188 15.20507812 C3.27333984 16.27822266 3.28300781 17.35136719 3.29296875 18.45703125 C3.31653442 19.9416687 3.31653442 19.9416687 3.34057617 21.45629883 C2.95047123 24.3699213 2.27991712 25.22497802 0 27 C-0.66 26.67 -1.32 26.34 -2 26 C-2.05849554 22.79174438 -2.09376162 19.58362767 -2.125 16.375 C-2.15013672 15.01955078 -2.15013672 15.01955078 -2.17578125 13.63671875 C-2.21201643 8.67249848 -1.96444146 4.65588093 0 0 Z " fill="#E69E2F" transform="translate(26,53)"/>
<path d="M0 0 C1.21236328 0.02707031 1.21236328 0.02707031 2.44921875 0.0546875 C3.37154297 0.08949219 3.37154297 0.08949219 4.3125 0.125 C4.43625 0.929375 4.56 1.73375 4.6875 2.5625 C4.89375 3.408125 5.1 4.25375 5.3125 5.125 C5.9725 5.455 6.6325 5.785 7.3125 6.125 C-3.2475 6.125 -13.8075 6.125 -24.6875 6.125 C-24.6875 5.795 -24.6875 5.465 -24.6875 5.125 C-19.64274628 3.74915808 -14.88577913 2.8381525 -9.66796875 2.46875 C-5.86909677 1.80937972 -4.12283085 -0.11950234 0 0 Z " fill="#413A33" transform="translate(80.6875,5.875)"/>
<path d="M0 0 C0.84755859 0.00322266 1.69511719 0.00644531 2.56835938 0.00976562 C3.8899707 0.02233398 3.8899707 0.02233398 5.23828125 0.03515625 C6.57729492 0.04192383 6.57729492 0.04192383 7.94335938 0.04882812 C10.14590112 0.06060642 12.34830724 0.07705461 14.55078125 0.09765625 C14.55078125 0.75765625 14.55078125 1.41765625 14.55078125 2.09765625 C17.52078125 2.59265625 17.52078125 2.59265625 20.55078125 3.09765625 C20.55078125 4.74765625 20.55078125 6.39765625 20.55078125 8.09765625 C19.89078125 7.76765625 19.23078125 7.43765625 18.55078125 7.09765625 C18.55078125 6.43765625 18.55078125 5.77765625 18.55078125 5.09765625 C17.56078125 5.09765625 16.57078125 5.09765625 15.55078125 5.09765625 C15.55078125 4.43765625 15.55078125 3.77765625 15.55078125 3.09765625 C14.65359375 3.37609375 14.65359375 3.37609375 13.73828125 3.66015625 C11.55078125 4.09765625 11.55078125 4.09765625 8.55078125 3.09765625 C6.88810251 2.95545346 5.21926395 2.87745058 3.55078125 2.84765625 C2.68453125 2.821875 1.81828125 2.79609375 0.92578125 2.76953125 C-1.92205948 3.16298293 -2.71014434 3.86324176 -4.44921875 6.09765625 C-5.62496586 8.19755277 -5.62496586 8.19755277 -6.44921875 10.09765625 C-8.06870886 7.52552491 -8.49330626 6.42096466 -8.07421875 3.34765625 C-7.86796875 2.60515625 -7.66171875 1.86265625 -7.44921875 1.09765625 C-4.6251011 0.1562837 -2.92003843 -0.01959757 0 0 Z " fill="#C28713" transform="translate(75.44921875,120.90234375)"/>
<path d="M0 0 C4.62 0 9.24 0 14 0 C13.67 1.98 13.34 3.96 13 6 C9.7658721 7.97641149 6.74768533 8.49311649 3 8 C1.1875 6.8125 1.1875 6.8125 0 5 C0 3.35 0 1.7 0 0 Z " fill="#E7AB1A" transform="translate(75,87)"/>
<path d="M0 0 C0.99 0 1.98 0 3 0 C3 4.29 3 8.58 3 13 C-1.95 14.485 -1.95 14.485 -7 16 C-5.56835889 12.34061828 -4.01065704 8.76011932 -2.375 5.1875 C-1.92898437 4.21167969 -1.48296875 3.23585938 -1.0234375 2.23046875 C-0.51683594 1.12638672 -0.51683594 1.12638672 0 0 Z " fill="#8B5106" transform="translate(118,87)"/>
<path d="M0 0 C0 0.33 0 0.66 0 1 C-1.03060547 1.02126953 -1.03060547 1.02126953 -2.08203125 1.04296875 C-4.80660898 1.18718817 -7.3383584 1.39137986 -10 2 C-12.21306951 4.37255115 -12.21306951 4.37255115 -13 7 C-16.3 6.34 -19.6 5.68 -23 5 C-23 3.68 -23 2.36 -23 1 C-15.07809753 -0.50242978 -7.98902187 -1.3345093 0 0 Z " fill="#48443C" transform="translate(41,9)"/>
<path d="M0 0 C0.28875 0.598125 0.5775 1.19625 0.875 1.8125 C2.04742026 4.19327792 2.04742026 4.19327792 4 7 C5.57500118 11.42800332 4.24829851 14.59424056 3 19 C3.99 19.33 4.98 19.66 6 20 C2.71303767 20.79953138 1.28976808 21.09658936 -2 20 C-2 15.71 -2 11.42 -2 7 C-1.67 7 -1.34 7 -1 7 C-0.67 4.69 -0.34 2.38 0 0 Z " fill="#D58A25" transform="translate(29,60)"/>
<path d="M0 0 C0 0.66 0 1.32 0 2 C-2.77756202 3.22539501 -5.17366576 4.02724169 -8.1875 4.5 C-11.12747383 4.74585812 -11.12747383 4.74585812 -13 7 C-13.33 6.34 -13.66 5.68 -14 5 C-16.31 5.66 -18.62 6.32 -21 7 C-21 6.67 -21 6.34 -21 6 C-24.3 5.67 -27.6 5.34 -31 5 C-31 4.67 -31 4.34 -31 4 C-7.90566038 0 -7.90566038 0 0 0 Z " fill="#333333" transform="translate(136,14)"/>
<path d="M0 0 C0.99 0 1.98 0 3 0 C5.60838688 7.53404602 7.54249536 13.99819339 7 22 C4.3144406 19.3144406 3.93950026 16.62378672 3 13 C2.34 13 1.68 13 1 13 C1 15.97 1 18.94 1 22 C0.67 22 0.34 22 0 22 C0 14.74 0 7.48 0 0 Z " fill="#D39612" transform="translate(42,74)"/>
<path d="M0 0 C0.66 0 1.32 0 2 0 C0.71370473 4.71183028 -1.00898051 7.60637383 -4.3125 11.1875 C-5.07175781 12.02667969 -5.83101562 12.86585937 -6.61328125 13.73046875 C-9.55914196 16.53168818 -12.594087 18.33609664 -16.25 20.0625 C-18.18053285 20.88003585 -18.18053285 20.88003585 -19 23 C-21.31 23 -23.62 23 -26 23 C-23 21 -23 21 -20 21 C-19.67 20.01 -19.34 19.02 -19 18 C-17.01436348 16.97177453 -15.01190218 15.97583279 -13 15 C-10.30199261 12.9799708 -10.30199261 12.9799708 -7.8125 10.6875 C-6.97332031 9.94886719 -6.13414063 9.21023437 -5.26953125 8.44921875 C-2.82469182 5.810812 -1.45074886 3.27481747 0 0 Z " fill="#E4A717" transform="translate(110,95)"/>
<path d="M0 0 C1.60463449 0.31008884 3.20869231 0.62316287 4.8125 0.9375 C5.70582031 1.11152344 6.59914063 1.28554687 7.51953125 1.46484375 C10 2 10 2 13 3 C14.16796875 5.21484375 14.16796875 5.21484375 15.1875 7.9375 C15.53167969 8.83339844 15.87585938 9.72929687 16.23046875 10.65234375 C17 13 17 13 17 15 C16.34 15 15.68 15 15 15 C15 14.34 15 13.68 15 13 C14.34 13 13.68 13 13 13 C13 12.34 13 11.68 13 11 C12.01 10.67 11.02 10.34 10 10 C10 9.01 10 8.02 10 7 C9.01 7.33 8.02 7.66 7 8 C4.35247996 5.42215154 2.05567935 3.08351902 0 0 Z " fill="#5C5D5F" transform="translate(118,132)"/>
<path d="M0 0 C0.68126953 0.02707031 1.36253906 0.05414062 2.06445312 0.08203125 C5.09389388 0.26599337 7.10666923 0.39255647 9.53515625 2.296875 C9.87417969 2.77640625 10.21320313 3.2559375 10.5625 3.75 C4.75483704 5.2556904 -0.4356863 5.96824777 -6.4375 5.75 C-6.1075 4.43 -5.7775 3.11 -5.4375 1.75 C-6.7575 1.42 -8.0775 1.09 -9.4375 0.75 C-6.38672847 -0.77538577 -3.31792 -0.20600444 0 0 Z " fill="#343434" transform="translate(120.4375,7.25)"/>
<path d="M0 0 C3.81035094 5.71552641 5.55570361 13.1463221 5 20 C3.68 19.67 2.36 19.34 1 19 C-0.58869469 12.99984057 -1.59754554 7.22559073 -1 1 C-0.67 0.67 -0.34 0.34 0 0 Z " fill="#777675" transform="translate(122,18)"/>
<path d="M0 0 C6.93 0 13.86 0 21 0 C17.13757276 3.86242724 14.81211138 4.15188527 9.5625 4.1875 C8.14130859 4.20876953 8.14130859 4.20876953 6.69140625 4.23046875 C3.95498356 3.99614518 2.33571877 3.39701383 0 2 C0 1.34 0 0.68 0 0 Z " fill="#57300C" transform="translate(72,100)"/>
<path d="M0 0 C0.12375 0.639375 0.2475 1.27875 0.375 1.9375 C0.58125 2.618125 0.7875 3.29875 1 4 C1.66 4.33 2.32 4.66 3 5 C3.625 7.0625 3.625 7.0625 4 9 C0.48144841 7.59257936 -0.38612834 6.33533477 -2 3 C-2.99 2.67 -3.98 2.34 -5 2 C-4.34 3.32 -3.68 4.64 -3 6 C-8.61 6 -14.22 6 -20 6 C-17.42501192 3.42501192 -15.16172058 2.93733245 -11.6875 1.875 C-10.55699219 1.52179687 -9.42648438 1.16859375 -8.26171875 0.8046875 C-5.33613198 0.08292597 -2.98951921 -0.16826562 0 0 Z " fill="#75480B" transform="translate(106,45)"/>
<path d="M0 0 C0 0.66 0 1.32 0 2 C-5.75 5 -5.75 5 -8 5 C-8.53625 5.474375 -9.0725 5.94875 -9.625 6.4375 C-13.02885359 8.67687736 -15.96007893 8.66333991 -20 9 C-19.0409375 8.5978125 -19.0409375 8.5978125 -18.0625 8.1875 C-15.66868314 7.11332248 -15.66868314 7.11332248 -15 4 C-13.2578125 2.8671875 -13.2578125 2.8671875 -11.125 1.875 C-10.42632812 1.54242188 -9.72765625 1.20984375 -9.0078125 0.8671875 C-5.49507184 -0.64998843 -3.64386809 -1.13085562 0 0 Z " fill="#4F5050" transform="translate(55,129)"/>
<path d="M0 0 C1.98 0.66 3.96 1.32 6 2 C6 2.66 6 3.32 6 4 C4.35 3.67 2.7 3.34 1 3 C0.731875 3.9075 0.46375 4.815 0.1875 5.75 C-1 9 -1 9 -2.53125 10.8125 C-4.44986537 13.67001225 -4.50201206 15.83702192 -4.6875 19.25 C-4.78611328 20.86648437 -4.78611328 20.86648437 -4.88671875 22.515625 C-4.92410156 23.33546875 -4.96148437 24.1553125 -5 25 C-5.66 25 -6.32 25 -7 25 C-7.54833469 12.44922827 -7.54833469 12.44922827 -4 7 C-3.26494386 5.71167579 -2.53589718 4.41990669 -1.8125 3.125 C-1.214375 2.09375 -0.61625 1.0625 0 0 Z " fill="#AF720C" transform="translate(49,49)"/>
<path d="M0 0 C0.495 0.99 0.495 0.99 1 2 C-10.07099954 3.42033442 -20.83190472 4.2964981 -32 4 C-32 3.67 -32 3.34 -32 3 C-28.16772354 2.49167358 -24.33403696 1.99485826 -20.5 1.5 C-18.88351563 1.28537109 -18.88351563 1.28537109 -17.234375 1.06640625 C-11.43522303 0.32383191 -5.84610901 -0.17027502 0 0 Z " fill="#282A2C" transform="translate(67,5)"/>
<path d="M0 0 C3.85695125 0.22039721 5.01616402 1.01546124 7.875 3.75 C10 7 10 7 10.0625 9.6875 C8.77608525 12.48734386 7.73866322 13.59154463 5 15 C2.75 14.6875 2.75 14.6875 1 14 C1.495 13.649375 1.99 13.29875 2.5 12.9375 C4.82091376 9.93965306 4.45113866 7.67355767 4 4 C2.14579161 1.55901182 2.14579161 1.55901182 0 0 Z " fill="#FBF0BD" transform="translate(103,63)"/>
<path d="M0 0 C0.66 0 1.32 0 2 0 C2.99 2.97 3.98 5.94 5 9 C5.66 9 6.32 9 7 9 C7 10.32 7 11.64 7 13 C4.36 12.67 1.72 12.34 -1 12 C-0.67 8.04 -0.34 4.08 0 0 Z " fill="#9D6209" transform="translate(43,87)"/>
<path d="M0 0 C7.68395543 -0.2137731 14.56340812 -0.01670288 22 2 C21.01 3.485 21.01 3.485 20 5 C13.25390382 4.33644956 6.65551466 3.28134207 0 2 C0 1.34 0 0.68 0 0 Z " fill="#5C5D5D" transform="translate(56,16)"/>
<path d="M0 0 C0.33 0 0.66 0 1 0 C1.35915493 6.34507042 1.35915493 6.34507042 -0.0625 8.9375 C-3.1652833 10.63902633 -5.53769185 10.42519574 -9 10 C-11.4375 8.3125 -11.4375 8.3125 -13 6 C-13.25 3.25 -13.25 3.25 -13 1 C-12.67 2.32 -12.34 3.64 -12 5 C-9.03 5.33 -6.06 5.66 -3 6 C-2.01 4.02 -1.02 2.04 0 0 Z " fill="#6A410D" transform="translate(107,67)"/>
<path d="M0 0 C6.62270297 7.80532851 8.74422966 13.93731401 10 24 C9.34 24.33 8.68 24.66 8 25 C6.66666667 19.66666667 5.33333333 14.33333333 4 9 C3.34 9 2.68 9 2 9 C0.50178941 5.62902617 0 3.79557881 0 0 Z " fill="#965C08" transform="translate(112,51)"/>
<path d="M0 0 C0 0.66 0 1.32 0 2 C-7.24243982 4.06926852 -13.92002185 5.53998908 -21 2 C-21 1.67 -21 1.34 -21 1 C-19.64455078 0.90912109 -19.64455078 0.90912109 -18.26171875 0.81640625 C-16.49248047 0.69072266 -16.49248047 0.69072266 -14.6875 0.5625 C-12.92986328 0.44068359 -12.92986328 0.44068359 -11.13671875 0.31640625 C-2.34507042 -0.57042254 -2.34507042 -0.57042254 0 0 Z " fill="#6B6B6B" transform="translate(94,18)"/>
<path d="M0 0 C1.23723976 2.47447952 1 4.2553349 1 7 C1.33 7.99 1.66 8.98 2 10 C5.51190809 11.22969878 5.51190809 11.22969878 9 12 C9 12.33 9 12.66 9 13 C1.73846154 13.49230769 1.73846154 13.49230769 -2 11 C-2.66 10.34 -3.32 9.68 -4 9 C-3.46930939 5.17902761 -2.50298434 2.93828597 0 0 Z " fill="#FAEEBB" transform="translate(94,66)"/>
<path d="M0 0 C1.98 0.66 3.96 1.32 6 2 C5.360625 2.2475 4.72125 2.495 4.0625 2.75 C1.80104993 3.79688294 1.80104993 3.79688294 1.4375 6.0625 C1.293125 6.701875 1.14875 7.34125 1 8 C0.01 8.33 -0.98 8.66 -2 9 C-3.21869929 11.50447516 -3.21869929 11.50447516 -4 14 C-4.66 13.67 -5.32 13.34 -6 13 C-5.1905146 11.01959844 -4.37732831 9.04070923 -3.5625 7.0625 C-3.11003906 5.96035156 -2.65757813 4.85820312 -2.19140625 3.72265625 C-1 1 -1 1 0 0 Z " fill="#5E6061" transform="translate(33,133)"/>
<path d="M0 0 C0.99 0.33 1.98 0.66 3 1 C3 1.66 3 2.32 3 3 C3.66 3 4.32 3 5 3 C5 3.66 5 4.32 5 5 C3.58318366 4.68817931 2.16655349 4.37551263 0.75 4.0625 C-0.03890625 3.88847656 -0.8278125 3.71445313 -1.640625 3.53515625 C-3.76878703 3.052444 -5.88532842 2.53836822 -8 2 C-8.66 3.32 -9.32 4.64 -10 6 C-11 3 -11 3 -10 0 C-6.78455056 -1.60772472 -3.42887101 -0.61108592 0 0 Z " fill="#666158" transform="translate(108,122)"/>
<path d="M0 0 C-0.99 0.495 -0.99 0.495 -2 1 C-1.67 1.99 -1.34 2.98 -1 4 C-4.08809695 5.76462683 -5.23312136 6 -9 6 C-9 5.34 -9 4.68 -9 4 C-10.65 3.67 -12.3 3.34 -14 3 C-14 2.34 -14 1.68 -14 1 C-9.29480905 -0.31745347 -4.71038024 -1.57012675 0 0 Z " fill="#DE9F1B" transform="translate(90,104)"/>
<path d="M0 0 C0.33 0 0.66 0 1 0 C1.33 8.58 1.66 17.16 2 26 C1.01 25.67 0.02 25.34 -1 25 C-1.02917228 21.77085248 -1.04685663 18.54173917 -1.0625 15.3125 C-1.07087891 14.40048828 -1.07925781 13.48847656 -1.08789062 12.54882812 C-1.09111328 11.66259766 -1.09433594 10.77636719 -1.09765625 9.86328125 C-1.10289307 9.05157471 -1.10812988 8.23986816 -1.11352539 7.40356445 C-0.9929791 4.85135327 -0.559949 2.48973863 0 0 Z " fill="#F4C267" transform="translate(25,54)"/>
<path d="M0 0 C10.01426535 0.52296719 20.01255997 1.07958886 30 2 C30 2.33 30 2.66 30 3 C19.305489 4.0630472 10.3925806 4.19910742 0 1 C0 0.67 0 0.34 0 0 Z " fill="#555554" transform="translate(38,13)"/>
<path d="M0 0 C0.66 0.33 1.32 0.66 2 1 C1.88570603 2.77155654 1.75816963 4.54226229 1.625 6.3125 C1.55539063 7.29863281 1.48578125 8.28476563 1.4140625 9.30078125 C1 12 1 12 -1 15 C-1.66 14.67 -2.32 14.34 -3 14 C-2.28547412 9.23649415 -1.20465156 4.65798604 0 0 Z M-3 15 C-2.34 15.33 -1.68 15.66 -1 16 C-1.8125 18.4375 -1.8125 18.4375 -3 21 C-3.99 21.33 -4.98 21.66 -6 22 C-4.125 17.25 -4.125 17.25 -3 15 Z " fill="#E9AD19" transform="translate(116,72)"/>
<path d="M0 0 C1.21236328 0.02707031 1.21236328 0.02707031 2.44921875 0.0546875 C3.37154297 0.08949219 3.37154297 0.08949219 4.3125 0.125 C3.9825 1.445 3.6525 2.765 3.3125 4.125 C2.6525 4.125 1.9925 4.125 1.3125 4.125 C1.3125 4.785 1.3125 5.445 1.3125 6.125 C-0.3375 6.125 -1.9875 6.125 -3.6875 6.125 C-3.6875 5.135 -3.6875 4.145 -3.6875 3.125 C-4.30625 3.434375 -4.925 3.74375 -5.5625 4.0625 C-6.9375 4.75 -8.3125 5.4375 -9.6875 6.125 C-7.58496928 1.27300604 -5.24222142 -0.15194845 0 0 Z " fill="#8E6F34" transform="translate(61.6875,61.875)"/>
<path d="M0 0 C8.57142857 -0.28571429 8.57142857 -0.28571429 12 2 C12 2.66 12 3.32 12 4 C6.06 4.495 6.06 4.495 0 5 C0 3.35 0 1.7 0 0 Z " fill="#F1B925" transform="translate(56,49)"/>
<path d="M0 0 C1.6442602 4.05861695 0.28397525 7.6184763 -0.875 11.625 C-1.06191406 12.305625 -1.24882813 12.98625 -1.44140625 13.6875 C-2.82327706 18.64655413 -2.82327706 18.64655413 -4 21 C-4.66 21 -5.32 21 -6 21 C-5.42381249 15.85404946 -4.25256722 11.44921945 -2.4375 6.5625 C-1.98246094 5.32628906 -1.52742188 4.09007812 -1.05859375 2.81640625 C-0.70925781 1.88699219 -0.35992187 0.95757813 0 0 Z " fill="#6B615A" transform="translate(42,18)"/>
<path d="M0 0 C-0.33 0.66 -0.66 1.32 -1 2 C-8.16083409 3.69430449 -16.87409575 3.83894303 -24 2 C-24 1.67 -24 1.34 -24 1 C-15.97875848 0.28586721 -8.05358138 -0.14525497 0 0 Z " fill="#C29043" transform="translate(74,7)"/>
<path d="M0 0 C1.22589844 0.01353516 1.22589844 0.01353516 2.4765625 0.02734375 C3.41628906 0.04474609 3.41628906 0.04474609 4.375 0.0625 C4.705 1.3825 5.035 2.7025 5.375 4.0625 C1.415 4.0625 -2.545 4.0625 -6.625 4.0625 C-6.625 3.0725 -6.625 2.0825 -6.625 1.0625 C-4.21954362 -0.14022819 -2.67503047 -0.03821472 0 0 Z " fill="#4B4B4C" transform="translate(80.625,5.9375)"/>
<path d="M0 0 C1.65 0 3.3 0 5 0 C6.125 4.75 6.125 4.75 5 7 C3.35 7 1.7 7 0 7 C-1.33332095 4.3333581 -0.67102033 2.83319697 0 0 Z " fill="#FED145" transform="translate(79,81)"/>
<path d="M0 0 C0.66 0 1.32 0 2 0 C2.67548578 2.05962852 3.34004312 4.12284322 4 6.1875 C4.37125 7.33605469 4.7425 8.48460937 5.125 9.66796875 C5.90630553 12.64320812 6.18363306 14.95283896 6 18 C5.34 18 4.68 18 4 18 C3.32873871 15.5636811 2.66283646 13.12611117 2 10.6875 C1.71382812 9.65206055 1.71382812 9.65206055 1.421875 8.59570312 C0.62283816 5.64212051 0 3.07440781 0 0 Z " fill="#212121" transform="translate(36,142)"/>
<path d="M0 0 C5.77378925 0.4811491 9.95859836 2.18467181 15 5 C15 5.33 15 5.66 15 6 C10.9072224 6.18603535 8.58856779 5.84865614 5 4 C2.67504723 3.61250787 0.34148732 3.27017161 -2 3 C-1.34 2.67 -0.68 2.34 0 2 C0 1.34 0 0.68 0 0 Z " fill="#BA8119" transform="translate(59,46)"/>
<path d="M0 0 C0.33 0 0.66 0 1 0 C1 8.58 1 17.16 1 26 C0.01 26 -0.98 26 -2 26 C-2 24.02 -2 22.04 -2 20 C-1.34 20 -0.68 20 0 20 C0 13.4 0 6.8 0 0 Z " fill="#F4A832" transform="translate(29,22)"/>
<path d="M0 0 C0.84755859 0.00322266 1.69511719 0.00644531 2.56835938 0.00976562 C3.8899707 0.02233398 3.8899707 0.02233398 5.23828125 0.03515625 C6.57729492 0.04192383 6.57729492 0.04192383 7.94335938 0.04882812 C10.14590112 0.06060642 12.34830724 0.07705461 14.55078125 0.09765625 C14.55078125 0.42765625 14.55078125 0.75765625 14.55078125 1.09765625 C13.43058594 1.14664063 12.31039062 1.195625 11.15625 1.24609375 C9.68356922 1.32113481 8.21091418 1.39668207 6.73828125 1.47265625 C6.00029297 1.50359375 5.26230469 1.53453125 4.50195312 1.56640625 C0.7318501 1.77111773 -1.24572616 1.96199452 -4.44921875 4.09765625 C-5.43921875 4.09765625 -6.42921875 4.09765625 -7.44921875 4.09765625 C-7.77921875 4.75765625 -8.10921875 5.41765625 -8.44921875 6.09765625 C-8.11921875 4.44765625 -7.78921875 2.79765625 -7.44921875 1.09765625 C-4.6251011 0.1562837 -2.92003843 -0.01959757 0 0 Z " fill="#B57A10" transform="translate(75.44921875,120.90234375)"/>
<path d="M0 0 C7.59570439 -0.58179863 13.14115041 0.73110147 20 4 C19.67 5.32 19.34 6.64 19 8 C19 7.01 19 6.02 19 5 C18.37351562 4.95101562 17.74703125 4.90203125 17.1015625 4.8515625 C16.28429687 4.77679688 15.46703125 4.70203125 14.625 4.625 C13.40683594 4.52058594 13.40683594 4.52058594 12.1640625 4.4140625 C10 4 10 4 8 2 C5.34462628 1.43479997 2.70855287 1.26211802 0 1 C0 0.67 0 0.34 0 0 Z " fill="#7C4F18" transform="translate(35,39)"/>
<path d="M0 0 C4.95 0.99 4.95 0.99 10 2 C10 3.32 10 4.64 10 6 C6.7 5.34 3.4 4.68 0 4 C0 2.68 0 1.36 0 0 Z " fill="#262729" transform="translate(18,10)"/>
<path d="M0 0 C0.33 0.99 0.66 1.98 1 3 C0.67 3.66 0.34 4.32 0 5 C-0.2275015 6.87056791 -0.40962811 8.74685958 -0.5625 10.625 C-0.68818359 12.12933594 -0.68818359 12.12933594 -0.81640625 13.6640625 C-0.87699219 14.43492188 -0.93757813 15.20578125 -1 16 C-1.268125 15.38125 -1.53625 14.7625 -1.8125 14.125 C-2.95556848 11.7004767 -2.95556848 11.7004767 -6 10 C-6.1875 6.875 -6.1875 6.875 -6 4 C-5.01 5.32 -4.02 6.64 -3 8 C-2.01 5.36 -1.02 2.72 0 0 Z " fill="#D19515" transform="translate(43,57)"/>
<path d="M0 0 C6.13053511 -0.32712342 10.62669111 -0.39366878 16 3 C16 3.66 16 4.32 16 5 C15.21625 4.690625 14.4325 4.38125 13.625 4.0625 C9.10148422 2.73664193 4.68568186 2.35188915 0 2 C0 1.34 0 0.68 0 0 Z " fill="#8D5106" transform="translate(94,54)"/>
<path d="M0 0 C1.9375 0.3125 1.9375 0.3125 4 1 C4.33 1.99 4.66 2.98 5 4 C2.8216544 5.0891728 1.2796036 5.28032356 -1.1328125 5.53515625 C-2.34130859 5.66567383 -2.34130859 5.66567383 -3.57421875 5.79882812 C-4.41597656 5.88583984 -5.25773437 5.97285156 -6.125 6.0625 C-6.97449219 6.15337891 -7.82398437 6.24425781 -8.69921875 6.33789062 C-10.7991145 6.5620368 -12.89951293 6.78146448 -15 7 C-11.58788584 4.72525723 -9.3431471 4.43370356 -5.3125 3.875 C-4.13300781 3.70742188 -2.95351562 3.53984375 -1.73828125 3.3671875 C-0.83464844 3.24601562 0.06898437 3.12484375 1 3 C0.67 2.01 0.34 1.02 0 0 Z " fill="#C38918" transform="translate(101,47)"/>
<path d="M0 0 C4.62 0 9.24 0 14 0 C13.67 0.66 13.34 1.32 13 2 C9.44646071 3.1845131 6.72986522 3.26641894 3 3 C2.01 2.01 1.02 1.02 0 0 Z " fill="#3B190A" transform="translate(77,101)"/>
<path d="M0 0 C0.99386719 0.00902344 1.98773438 0.01804688 3.01171875 0.02734375 C4.15060547 0.04474609 4.15060547 0.04474609 5.3125 0.0625 C5.3125 0.7225 5.3125 1.3825 5.3125 2.0625 C4.31669922 2.15337891 4.31669922 2.15337891 3.30078125 2.24609375 C-3.23658081 2.86113507 -3.23658081 2.86113507 -9.6875 4.0625 C-9.3575 3.0725 -9.0275 2.0825 -8.6875 1.0625 C-5.53819107 0.01273036 -3.29935544 -0.03881595 0 0 Z " fill="#844804" transform="translate(62.6875,53.9375)"/>
<path d="M0 0 C1.3303125 0.11794922 1.3303125 0.11794922 2.6875 0.23828125 C5 0.6875 5 0.6875 7 2.6875 C4.03 3.3475 1.06 4.0075 -2 4.6875 C-2 4.3575 -2 4.0275 -2 3.6875 C-3.65 3.3575 -5.3 3.0275 -7 2.6875 C-7 2.0275 -7 1.3675 -7 0.6875 C-4.42121756 -0.60189122 -2.85485837 -0.27801673 0 0 Z " fill="#434343" transform="translate(140,9.3125)"/>
<path d="M0 0 C-1.1566677 3.47000311 -1.85726716 3.84701459 -4.875 5.6875 C-5.57367188 6.12449219 -6.27234375 6.56148437 -6.9921875 7.01171875 C-9 8 -9 8 -12 8 C-10.77974937 4.3392481 -9.873509 4.07660559 -6.5625 2.3125 C-5.75941406 1.87550781 -4.95632812 1.43851562 -4.12890625 0.98828125 C-2 0 -2 0 0 0 Z " fill="#737476" transform="translate(46,126)"/>
<path d="M0 0 C0.66 1.65 1.32 3.3 2 5 C1.34 5 0.68 5 0 5 C0 4.34 0 3.68 0 3 C-4.455 3.495 -4.455 3.495 -9 4 C-9 3.01 -9 2.02 -9 1 C-5.92677456 0.08941469 -3.19902639 -0.08886184 0 0 Z " fill="#625E57" transform="translate(65,121)"/>
<path d="M0 0 C0.33 0 0.66 0 1 0 C1 3.63 1 7.26 1 11 C-3.95 12.485 -3.95 12.485 -9 14 C-8.34 12.68 -7.68 11.36 -7 10 C-6.34 10 -5.68 10 -5 10 C-3.32254318 9.36096883 -1.65438613 8.69658363 0 8 C0 5.36 0 2.72 0 0 Z " fill="#AA6D0C" transform="translate(120,89)"/>
<path d="M0 0 C0.68620031 1.32338632 1.34786461 2.65949948 2 4 C2.37125 4.721875 2.7425 5.44375 3.125 6.1875 C4.35411435 10.1382247 4.16096648 13.89535484 4 18 C1.53124858 15.53124858 1.45538144 14.09148319 0.875 10.6875 C0.70742188 9.74261719 0.53984375 8.79773438 0.3671875 7.82421875 C0.02285798 5.17581193 -0.06799797 2.66649174 0 0 Z " fill="#DDA015" transform="translate(45,78)"/>
<path d="M0 0 C1.8871875 0.0309375 1.8871875 0.0309375 3.8125 0.0625 C3.214375 0.35125 2.61625 0.64 2 0.9375 C-2.16452582 3.01452506 -2.16452582 3.01452506 -4.1875 7.0625 C-5.1775 6.7325 -6.1675 6.4025 -7.1875 6.0625 C-7.1875 4.4125 -7.1875 2.7625 -7.1875 1.0625 C-4.43671116 0.14557039 -2.82801087 -0.04636083 0 0 Z " fill="#9B6410" transform="translate(113.1875,42.9375)"/>
<path d="M0 0 C3.96 0 7.92 0 12 0 C8 4 8 4 4.75 4.25 C3.8425 4.1675 2.935 4.085 2 4 C1.34 2.68 0.68 1.36 0 0 Z " fill="#B77A0D" transform="translate(76,89)"/>
<path d="M0 0 C-0.33 3.63 -0.66 7.26 -1 11 C-1.66 10.01 -2.32 9.02 -3 8 C-3.99 8.495 -3.99 8.495 -5 9 C-4.4140625 2.84765625 -4.4140625 2.84765625 -4 1 C-2 0 -2 0 0 0 Z " fill="#E9AF1E" transform="translate(127,67)"/>
<path d="M0 0 C1.23556641 0.01740234 1.23556641 0.01740234 2.49609375 0.03515625 C3.32238281 0.04417969 4.14867188 0.05320313 5 0.0625 C5.63808594 0.07410156 6.27617188 0.08570313 6.93359375 0.09765625 C3.93359375 2.09765625 3.93359375 2.09765625 1.93359375 3.09765625 C1.93359375 4.08765625 1.93359375 5.07765625 1.93359375 6.09765625 C0.61359375 6.09765625 -0.70640625 6.09765625 -2.06640625 6.09765625 C-2.44859392 4.44150968 -2.78035727 2.77308601 -3.06640625 1.09765625 C-2.06640625 0.09765625 -2.06640625 0.09765625 0 0 Z " fill="#B89750" transform="translate(99.06640625,61.90234375)"/>
<path d="M0 0 C-1.43429001 0.67354499 -2.87257057 1.33859701 -4.3125 2 C-5.51326172 2.556875 -5.51326172 2.556875 -6.73828125 3.125 C-9 4 -9 4 -12 4 C-11.4375 2.125 -11.4375 2.125 -10 0 C-3.75 -2.5 -3.75 -2.5 0 0 Z " fill="#696B6D" transform="translate(58,124)"/>
<path d="M0 0 C2 1.625 2 1.625 4 4 C4.25 7.25 4.25 7.25 4 10 C2.68 10.33 1.36 10.66 0 11 C0 7.37 0 3.74 0 0 Z " fill="#FBF3CB" transform="translate(69,66)"/>
<path d="M0 0 C1.32 0.33 2.64 0.66 4 1 C4.33 2.65 4.66 4.3 5 6 C2.36 5.34 -0.28 4.68 -3 4 C-2.01 2.68 -1.02 1.36 0 0 Z " fill="#935606" transform="translate(95,116)"/>
<path d="M0 0 C0 1.65 0 3.3 0 5 C-0.33 4.01 -0.66 3.02 -1 2 C-1.66 2 -2.32 2 -3 2 C-3 3.32 -3 4.64 -3 6 C-4.32 6 -5.64 6 -7 6 C-7 4.35 -7 2.7 -7 1 C-1.125 0 -1.125 0 0 0 Z " fill="#8A7D58" transform="translate(33,47)"/>
<path d="M0 0 C0 0.99 0 1.98 0 3 C-6.0546875 3.9765625 -6.0546875 3.9765625 -8 4 C-8.66 3.34 -9.32 2.68 -10 2 C-6.49223216 0.39644899 -3.85645121 -0.22036864 0 0 Z " fill="#282929" transform="translate(147,12)"/>
<path d="M0 0 C0 0.66 0 1.32 0 2 C-4.07369424 4.03684712 -6.58937864 4.0257259 -11 3 C-7.88866897 -0.11133103 -4.26881718 0 0 0 Z " fill="#2C2D2E" transform="translate(136,14)"/>
<path d="M0 0 C0.33 0 0.66 0 1 0 C1.26218749 3.14624993 1.24754367 4.61837017 -0.5 7.3125 C-1.2425 8.1478125 -1.2425 8.1478125 -2 9 C-3.32 8.34 -4.64 7.68 -6 7 C-5.01 6.67 -4.02 6.34 -3 6 C-2.67 5.01 -2.34 4.02 -2 3 C-1.34 3 -0.68 3 0 3 C0 2.01 0 1.02 0 0 Z " fill="#B37B1D" transform="translate(69,68)"/>
<path d="M0 0 C0.33 0 0.66 0 1 0 C1.25 3.3125 1.25 3.3125 1 7 C-1 8.9375 -1 8.9375 -3 10 C-3.66 9.34 -4.32 8.68 -5 8 C-4.54625 7.608125 -4.0925 7.21625 -3.625 6.8125 C-1.72357081 4.69167513 -0.93795972 2.66957765 0 0 Z " fill="#A0650C" transform="translate(107,67)"/>
<path d="M0 0 C2.02907167 3.3146667 2.12742133 5.4315979 1.625 9.25 C1.51414062 10.14203125 1.40328125 11.0340625 1.2890625 11.953125 C1.19367188 12.62859375 1.09828125 13.3040625 1 14 C-0.75328507 10.97159851 -1.25093193 8.80125633 -1.1875 5.3125 C-1.18105469 4.52488281 -1.17460938 3.73726562 -1.16796875 2.92578125 C-1 1 -1 1 0 0 Z " fill="#5F6060" transform="translate(122,18)"/>
<path d="M0 0 C0.66 0.33 1.32 0.66 2 1 C-2.26311718 5.12989477 -5.28758534 5.61271765 -11 6 C-7.57874946 3.12614955 -4.16111563 1.54115394 0 0 Z " fill="#464647" transform="translate(46,132)"/>
<path d="M0 0 C2.475 0.99 2.475 0.99 5 2 C4.54625 2.433125 4.0925 2.86625 3.625 3.3125 C1.79975666 5.10798342 1.79975666 5.10798342 0 8 C-1.125 2.25 -1.125 2.25 0 0 Z " fill="#905609" transform="translate(66,116)"/>
<path d="M0 0 C1.65 0 3.3 0 5 0 C5.12375 0.639375 5.2475 1.27875 5.375 1.9375 C5.684375 2.9584375 5.684375 2.9584375 6 4 C6.66 4.33 7.32 4.66 8 5 C8.625 7.0625 8.625 7.0625 9 9 C7.125 8.375 7.125 8.375 5 7 C4.30899447 5.00827818 3.64097297 3.00838196 3 1 C2.01 0.67 1.02 0.34 0 0 Z " fill="#7A4706" transform="translate(101,45)"/>
<path d="M0 0 C1.27875 -0.061875 2.5575 -0.12375 3.875 -0.1875 C4.95394531 -0.23970703 4.95394531 -0.23970703 6.0546875 -0.29296875 C6.69664063 -0.19628906 7.33859375 -0.09960938 8 0 C8.66 0.99 9.32 1.98 10 3 C6.7 3 3.4 3 0 3 C0 2.01 0 1.02 0 0 Z " fill="#A57225" transform="translate(35,40)"/>
<path d="M0 0 C1.45606519 4.52092968 0.27032841 7.51648796 -1 12 C-1.66 12 -2.32 12 -3 12 C-2.49202991 7.6822542 -1.80317221 3.96697886 0 0 Z " fill="#868787" transform="translate(42,18)"/>
<path d="M0 0 C-1 2 -1 2 -2.84765625 2.6328125 C-3.57855469 2.79523438 -4.30945313 2.95765625 -5.0625 3.125 C-5.79597656 3.29257813 -6.52945313 3.46015625 -7.28515625 3.6328125 C-7.85105469 3.75398438 -8.41695313 3.87515625 -9 4 C-6.73455663 -1.01633889 -5.27613404 -1.24961069 0 0 Z " fill="#A5680A" transform="translate(76,119)"/>
<path d="M0 0 C0.268125 0.639375 0.53625 1.27875 0.8125 1.9375 C1.88667752 4.33131686 1.88667752 4.33131686 5 5 C4.34 5 3.68 5 3 5 C3 6.98 3 8.96 3 11 C0.60236815 8.60236815 0.65719414 7.66726502 0.375 4.375 C0.30023438 3.55773437 0.22546875 2.74046875 0.1484375 1.8984375 C0.09945312 1.27195312 0.05046875 0.64546875 0 0 Z " fill="#D39615" transform="translate(120,63)"/>
<path d="M0 0 C2.00720923 0.28674418 4.0085944 0.61866701 6 1 C6.33 1.99 6.66 2.98 7 4 C4.125 4.1875 4.125 4.1875 1 4 C0.34 3.01 -0.32 2.02 -1 1 C-0.67 0.67 -0.34 0.34 0 0 Z " fill="#683803" transform="translate(58,73)"/>
<path d="M0 0 C2.375 0.1875 2.375 0.1875 5 1 C6.3125 3.5625 6.3125 3.5625 7 6 C6.01 5.67 5.02 5.34 4 5 C4 4.01 4 3.02 4 2 C3.01 2.33 2.02 2.66 1 3 C0.67 2.01 0.34 1.02 0 0 Z " fill="#474848" transform="translate(124,137)"/>
<path d="M0 0 C7.57142857 1.85714286 7.57142857 1.85714286 10 5 C7.8125 5.3125 7.8125 5.3125 5 5 C2.1875 2.5 2.1875 2.5 0 0 Z " fill="#545556" transform="translate(118,132)"/>
<path d="M0 0 C0.33 0 0.66 0 1 0 C1 2.97 1 5.94 1 9 C0.01 9 -0.98 9 -2 9 C-1.125 1.125 -1.125 1.125 0 0 Z " fill="#C67A1F" transform="translate(34,70)"/>
<path d="M0 0 C1.98 0.66 3.96 1.32 6 2 C6 2.66 6 3.32 6 4 C4.35 3.67 2.7 3.34 1 3 C0.67 3.99 0.34 4.98 0 6 C-1 3 -1 3 0 0 Z " fill="#8E5407" transform="translate(49,49)"/>
<path d="M0 0 C4.455 0.99 4.455 0.99 9 2 C9 2.33 9 2.66 9 3 C6.03 3 3.06 3 0 3 C0 2.01 0 1.02 0 0 Z " fill="#24211E" transform="translate(31,13)"/>
<path d="M0 0 C2.475 0.495 2.475 0.495 5 1 C5 1.99 5 2.98 5 4 C3.35 4 1.7 4 0 4 C0 2.68 0 1.36 0 0 Z " fill="#FFDE73" transform="translate(80,82)"/>
<path d="M0 0 C1.5625 1.1875 1.5625 1.1875 3 3 C2.6875 5.6875 2.6875 5.6875 2 8 C1.34 7.67 0.68 7.34 0 7 C0 4.69 0 2.38 0 0 Z " fill="#F8E9B2" transform="translate(110,67)"/>
<path d="M0 0 C0.99 0.33 1.98 0.66 3 1 C2.0409375 1.5878125 2.0409375 1.5878125 1.0625 2.1875 C-1.43778819 4.38472296 -1.64950425 5.75791433 -2 9 C-2.12375 8.360625 -2.2475 7.72125 -2.375 7.0625 C-2.684375 6.0415625 -2.684375 6.0415625 -3 5 C-3.66 4.67 -4.32 4.34 -5 4 C-2.6875 1.9375 -2.6875 1.9375 0 0 Z " fill="#DDC986" transform="translate(58,63)"/>
<path d="M0 0 C1.75 1.3125 1.75 1.3125 3 3 C3 3.66 3 4.32 3 5 C2.34 5 1.68 5 1 5 C1 4.34 1 3.68 1 3 C-0.32 3.33 -1.64 3.66 -3 4 C-3.33 3.01 -3.66 2.02 -4 1 C-2.1875 0.3125 -2.1875 0.3125 0 0 Z " fill="#BD800E" transform="translate(50,99)"/>
<path d="M0 0 C0.33 0.66 0.66 1.32 1 2 C2.32 2 3.64 2 5 2 C5.33 3.32 5.66 4.64 6 6 C5.01 6 4.02 6 3 6 C3 5.34 3 4.68 3 4 C2.01 4 1.02 4 0 4 C0 2.68 0 1.36 0 0 Z " fill="#D29514" transform="translate(41,97)"/>
<path d="M0 0 C0.33 0 0.66 0 1 0 C1 2.31 1 4.62 1 7 C0.01 7.33 -0.98 7.66 -2 8 C-1.47731534 5.23723823 -0.89130413 2.6739124 0 0 Z " fill="#DDA015" transform="translate(116,84)"/>
<path d="M0 0 C0.99 0 1.98 0 3 0 C3 4 3 4 1.625 5.75 C0 7 0 7 -2 7 C-1.34 4.69 -0.68 2.38 0 0 Z " fill="#3A2006" transform="translate(66,67)"/>
<path d="M0 0 C2.375 0.3125 2.375 0.3125 5 1 C7 4 7 4 6.625 6.6875 C6.41875 7.450625 6.2125 8.21375 6 9 C5.67 9 5.34 9 5 9 C4.731875 8.071875 4.46375 7.14375 4.1875 6.1875 C3.08851629 3.23759634 2.37581439 1.94384814 0 0 Z " fill="#DEC987" transform="translate(103,63)"/>
<path d="M0 0 C-0.33 0.66 -0.66 1.32 -1 2 C-3.64 2 -6.28 2 -9 2 C-4.13793103 -1.24137931 -4.13793103 -1.24137931 0 0 Z " fill="#482C08" transform="translate(100,47)"/>
<path d="M0 0 C1.98 0 3.96 0 6 0 C6.33 0.66 6.66 1.32 7 2 C5.02 2.66 3.04 3.32 1 4 C0.67 2.68 0.34 1.36 0 0 Z " fill="#EAB63A" transform="translate(38,44)"/>
<path d="M0 0 C0.66 0 1.32 0 2 0 C1.67 0.99 1.34 1.98 1 3 C0.67 2.01 0.34 1.02 0 0 Z " fill="#251A0E" transform="translate(127,24)"/>
<path d="M0 0 C0.66 0 1.32 0 2 0 C2 0.66 2 1.32 2 2 C1.34 2 0.68 2 0 2 C0 1.34 0 0.68 0 0 Z " fill="#13110F" transform="translate(128,33)"/>
<path d="M0 0 C0.66 0 1.32 0 2 0 C2 0.66 2 1.32 2 2 C1.34 2 0.68 2 0 2 C0 1.34 0 0.68 0 0 Z " fill="#251B0F" transform="translate(125,20)"/>
</svg>
