<svg width="19" height="18" viewBox="0 0 19 18" fill="none" xmlns="http://www.w3.org/2000/svg">
<path fill-rule="evenodd" clip-rule="evenodd" d="M9.21261 0C4.12449 0 0 4.13094 0 9.22827C0 13.3049 2.63941 16.7642 6.3005 17.9839C6.76114 18.0687 6.9288 17.784 6.9288 17.539C6.9288 17.3206 6.92144 16.7393 6.91683 15.9701C4.35388 16.5274 3.8131 14.7328 3.8131 14.7328C3.39485 13.666 2.7905 13.3822 2.7905 13.3822C1.95399 12.8111 2.85407 12.8221 2.85407 12.8221C3.77809 12.8866 4.26452 13.7729 4.26452 13.7729C5.08628 15.1824 6.42119 14.7752 6.94539 14.5393C7.03014 13.9433 7.26783 13.537 7.53131 13.3067C5.48611 13.0736 3.33497 12.2813 3.33497 8.74553C3.33497 7.73859 3.69426 6.91407 4.28294 6.26918C4.18805 6.0361 3.87206 5.09734 4.37323 3.82784C4.37323 3.82784 5.14709 3.5791 6.90669 4.77305C7.65823 4.56809 8.43363 4.46369 9.21261 4.46259C9.99568 4.46627 10.7834 4.56853 11.5194 4.77305C13.2781 3.5791 14.0502 3.82692 14.0502 3.82692C14.5532 5.09734 14.2362 6.0361 14.1423 6.26918C14.7319 6.91407 15.0893 7.73859 15.0893 8.74553C15.0893 12.2905 12.9345 13.0709 10.8829 13.2993C11.2136 13.584 11.5075 14.1469 11.5075 15.0083C11.5075 16.2409 11.4964 17.2368 11.4964 17.539C11.4964 17.7859 11.6622 18.0733 12.1302 17.983C13.9647 17.3677 15.5595 16.1914 16.6891 14.6205C17.8187 13.0495 18.426 11.1632 18.4252 9.22827C18.4252 4.13094 14.2998 0 9.21261 0Z" />
</svg>
